<?xml version="1.0" encoding="UTF-8" standalone="no"?>
<!-- Created with Inkscape (http://www.inkscape.org/) -->

<svg
   version="1.1"
   id="svg1"
   width="1624"
   height="1058.6667"
   viewBox="0 0 1624 1058.6667"
   sodipodi:docname="upload_xvcllccuz7oszfrcu5slyr4dvt.pdf"
   xmlns:inkscape="http://www.inkscape.org/namespaces/inkscape"
   xmlns:sodipodi="http://sodipodi.sourceforge.net/DTD/sodipodi-0.dtd"
   xmlns="http://www.w3.org/2000/svg"
   xmlns:svg="http://www.w3.org/2000/svg">
  <defs
     id="defs1">
    <clipPath
       clipPathUnits="userSpaceOnUse"
       id="clipPath2">
      <path
         d="M 0,794 H 1218 V 0 H 0 Z"
         transform="translate(-659.28911,-633.37111)"
         id="path2" />
    </clipPath>
    <clipPath
       clipPathUnits="userSpaceOnUse"
       id="clipPath4">
      <path
         d="M 0,794 H 1218 V 0 H 0 Z"
         transform="translate(-644.11472,-608.26122)"
         id="path4" />
    </clipPath>
    <clipPath
       clipPathUnits="userSpaceOnUse"
       id="clipPath6">
      <path
         d="M 0,794 H 1218 V 0 H 0 Z"
         transform="translate(-654.23831,-621.91212)"
         id="path6" />
    </clipPath>
    <clipPath
       clipPathUnits="userSpaceOnUse"
       id="clipPath8">
      <path
         d="M 0,794 H 1218 V 0 H 0 Z"
         transform="translate(-652.59862,-597.88482)"
         id="path8" />
    </clipPath>
    <clipPath
       clipPathUnits="userSpaceOnUse"
       id="clipPath10">
      <path
         d="M 0,794 H 1218 V 0 H 0 Z"
         transform="translate(-673.49321,-625.21531)"
         id="path10" />
    </clipPath>
    <clipPath
       clipPathUnits="userSpaceOnUse"
       id="clipPath12">
      <path
         d="M 0,794 H 1218 V 0 H 0 Z"
         transform="translate(-663.64751,-610.28911)"
         id="path12" />
    </clipPath>
    <clipPath
       clipPathUnits="userSpaceOnUse"
       id="clipPath14">
      <path
         d="M 0,794 H 1218 V 0 H 0 Z"
         transform="translate(-677.10302,-608.56741)"
         id="path14" />
    </clipPath>
    <clipPath
       clipPathUnits="userSpaceOnUse"
       id="clipPath16">
      <path
         d="M 0,794 H 1218 V 0 H 0 Z"
         transform="translate(-666.12602,-590.34471)"
         id="path16" />
    </clipPath>
    <clipPath
       clipPathUnits="userSpaceOnUse"
       id="clipPath18">
      <path
         d="M 0,794 H 1218 V 0 H 0 Z"
         transform="translate(-673.51562,-598.03911)"
         id="path18" />
    </clipPath>
    <clipPath
       clipPathUnits="userSpaceOnUse"
       id="clipPath20">
      <path
         d="M 0,794 H 1218 V 0 H 0 Z"
         transform="translate(-689.00681,-594.47661)"
         id="path20" />
    </clipPath>
    <clipPath
       clipPathUnits="userSpaceOnUse"
       id="clipPath22">
      <path
         d="M 0,794 H 1218 V 0 H 0 Z"
         transform="translate(-681.52202,-584.19042)"
         id="path22" />
    </clipPath>
    <clipPath
       clipPathUnits="userSpaceOnUse"
       id="clipPath24">
      <path
         d="M 0,794 H 1218 V 0 H 0 Z"
         transform="translate(-674.67682,-574.15041)"
         id="path24" />
    </clipPath>
    <clipPath
       clipPathUnits="userSpaceOnUse"
       id="clipPath26">
      <path
         d="M 0,794 H 1218 V 0 H 0 Z"
         transform="translate(-688.77491,-568.15041)"
         id="path26" />
    </clipPath>
    <clipPath
       clipPathUnits="userSpaceOnUse"
       id="clipPath28">
      <path
         d="M 0,794 H 1218 V 0 H 0 Z"
         transform="translate(-694.47311,-579.64261)"
         id="path28" />
    </clipPath>
    <clipPath
       clipPathUnits="userSpaceOnUse"
       id="clipPath30">
      <path
         d="M 0,794 H 1218 V 0 H 0 Z"
         transform="translate(-587.66362,-611.18952)"
         id="path30" />
    </clipPath>
    <clipPath
       clipPathUnits="userSpaceOnUse"
       id="clipPath32">
      <path
         d="M 0,794 H 1218 V 0 H 0 Z"
         transform="translate(-571.20851,-610.53612)"
         id="path32" />
    </clipPath>
    <clipPath
       clipPathUnits="userSpaceOnUse"
       id="clipPath34">
      <path
         d="M 0,794 H 1218 V 0 H 0 Z"
         transform="translate(-518.68951,-611.27292)"
         id="path34" />
    </clipPath>
    <clipPath
       clipPathUnits="userSpaceOnUse"
       id="clipPath36">
      <path
         d="M 0,794 H 1218 V 0 H 0 Z"
         transform="translate(-542.23141,-613.67632)"
         id="path36" />
    </clipPath>
    <clipPath
       clipPathUnits="userSpaceOnUse"
       id="clipPath38">
      <path
         d="M 0,794 H 1218 V 0 H 0 Z"
         transform="translate(-540.91411,-611.53962)"
         id="path38" />
    </clipPath>
    <clipPath
       clipPathUnits="userSpaceOnUse"
       id="clipPath40">
      <path
         d="M 0,794 H 1218 V 0 H 0 Z"
         transform="translate(-539.89402,-591.12301)"
         id="path40" />
    </clipPath>
    <clipPath
       clipPathUnits="userSpaceOnUse"
       id="clipPath42">
      <path
         d="M 0,794 H 1218 V 0 H 0 Z"
         transform="translate(-539.18602,-614.60062)"
         id="path42" />
    </clipPath>
    <clipPath
       clipPathUnits="userSpaceOnUse"
       id="clipPath44">
      <path
         d="M 0,794 H 1218 V 0 H 0 Z"
         transform="translate(-559.66852,-628.10401)"
         id="path44" />
    </clipPath>
    <clipPath
       clipPathUnits="userSpaceOnUse"
       id="clipPath46">
      <path
         d="M 0,794 H 1218 V 0 H 0 Z"
         transform="translate(-569.35942,-619.51272)"
         id="path46" />
    </clipPath>
    <clipPath
       clipPathUnits="userSpaceOnUse"
       id="clipPath48">
      <path
         d="M 0,794 H 1218 V 0 H 0 Z"
         transform="translate(-586.60991,-619.70412)"
         id="path48" />
    </clipPath>
    <clipPath
       clipPathUnits="userSpaceOnUse"
       id="clipPath50">
      <path
         d="M 0,794 H 1218 V 0 H 0 Z"
         transform="translate(-549.61771,-590.72851)"
         id="path50" />
    </clipPath>
    <clipPath
       clipPathUnits="userSpaceOnUse"
       id="clipPath52">
      <path
         d="M 0,794 H 1218 V 0 H 0 Z"
         transform="translate(-561.34912,-592.78611)"
         id="path52" />
    </clipPath>
    <clipPath
       clipPathUnits="userSpaceOnUse"
       id="clipPath54">
      <path
         d="M 0,794 H 1218 V 0 H 0 Z"
         transform="translate(-574.92871,-593.68161)"
         id="path54" />
    </clipPath>
    <clipPath
       clipPathUnits="userSpaceOnUse"
       id="clipPath56">
      <path
         d="M 0,794 H 1218 V 0 H 0 Z"
         transform="translate(-586.11181,-594.43951)"
         id="path56" />
    </clipPath>
    <clipPath
       clipPathUnits="userSpaceOnUse"
       id="clipPath58">
      <path
         d="M 0,794 H 1218 V 0 H 0 Z"
         transform="translate(-637.50782,-666.61332)"
         id="path58" />
    </clipPath>
    <clipPath
       clipPathUnits="userSpaceOnUse"
       id="clipPath60">
      <path
         d="M 0,794 H 1218 V 0 H 0 Z"
         transform="translate(-726.24462,-418.44871)"
         id="path60" />
    </clipPath>
    <clipPath
       clipPathUnits="userSpaceOnUse"
       id="clipPath62">
      <path
         d="M 0,794 H 1218 V 0 H 0 Z"
         transform="translate(-677.09522,-422.10501)"
         id="path62" />
    </clipPath>
    <clipPath
       clipPathUnits="userSpaceOnUse"
       id="clipPath64">
      <path
         d="M 0,794 H 1218 V 0 H 0 Z"
         transform="translate(-663.85061,-414.99071)"
         id="path64" />
    </clipPath>
    <clipPath
       clipPathUnits="userSpaceOnUse"
       id="clipPath66">
      <path
         d="M 0,794 H 1218 V 0 H 0 Z"
         transform="translate(-640.25002,-416.86721)"
         id="path66" />
    </clipPath>
    <clipPath
       clipPathUnits="userSpaceOnUse"
       id="clipPath68">
      <path
         d="M 0,794 H 1218 V 0 H 0 Z"
         transform="translate(-574.50101,-420.80471)"
         id="path68" />
    </clipPath>
    <clipPath
       clipPathUnits="userSpaceOnUse"
       id="clipPath70">
      <path
         d="M 0,794 H 1218 V 0 H 0 Z"
         transform="translate(-585.89212,-416.80911)"
         id="path70" />
    </clipPath>
    <clipPath
       clipPathUnits="userSpaceOnUse"
       id="clipPath72">
      <path
         d="M 0,794 H 1218 V 0 H 0 Z"
         transform="translate(-579.61132,-421.68601)"
         id="path72" />
    </clipPath>
    <clipPath
       clipPathUnits="userSpaceOnUse"
       id="clipPath74">
      <path
         d="M 0,794 H 1218 V 0 H 0 Z"
         transform="translate(-563.39842,-413.56541)"
         id="path74" />
    </clipPath>
    <clipPath
       clipPathUnits="userSpaceOnUse"
       id="clipPath76">
      <path
         d="M 0,794 H 1218 V 0 H 0 Z"
         transform="translate(-543.70361,-423.82761)"
         id="path76" />
    </clipPath>
    <clipPath
       clipPathUnits="userSpaceOnUse"
       id="clipPath78">
      <path
         d="M 0,794 H 1218 V 0 H 0 Z"
         transform="translate(-697.85741,-500.98831)"
         id="path78" />
    </clipPath>
    <clipPath
       clipPathUnits="userSpaceOnUse"
       id="clipPath80">
      <path
         d="M 0,794 H 1218 V 0 H 0 Z"
         transform="translate(-737.72752,-488.47071)"
         id="path80" />
    </clipPath>
    <clipPath
       clipPathUnits="userSpaceOnUse"
       id="clipPath82">
      <path
         d="M 0,794 H 1218 V 0 H 0 Z"
         transform="translate(-547.17772,-490.00391)"
         id="path82" />
    </clipPath>
    <clipPath
       clipPathUnits="userSpaceOnUse"
       id="clipPath84">
      <path
         d="M 0,794 H 1218 V 0 H 0 Z"
         transform="translate(-520.98241,-428.92141)"
         id="path84" />
    </clipPath>
    <clipPath
       clipPathUnits="userSpaceOnUse"
       id="clipPath86">
      <path
         d="M 0,794 H 1218 V 0 H 0 Z"
         transform="translate(-549.25591,-420.15531)"
         id="path86" />
    </clipPath>
    <clipPath
       clipPathUnits="userSpaceOnUse"
       id="clipPath88">
      <path
         d="M 0,794 H 1218 V 0 H 0 Z"
         transform="translate(-729.52592,-415.77441)"
         id="path88" />
    </clipPath>
    <clipPath
       clipPathUnits="userSpaceOnUse"
       id="clipPath90">
      <path
         d="M 0,794 H 1218 V 0 H 0 Z"
         transform="translate(-105.1792,-277.07471)"
         id="path90" />
    </clipPath>
    <clipPath
       clipPathUnits="userSpaceOnUse"
       id="clipPath92">
      <path
         d="M 0,794 H 1218 V 0 H 0 Z"
         transform="translate(-180.31491,-292.76561)"
         id="path92" />
    </clipPath>
    <clipPath
       clipPathUnits="userSpaceOnUse"
       id="clipPath94">
      <path
         d="M 0,794 H 1218 V 0 H 0 Z"
         transform="translate(-325.42631,-326.12791)"
         id="path94" />
    </clipPath>
    <clipPath
       clipPathUnits="userSpaceOnUse"
       id="clipPath96">
      <path
         d="M 0,794 H 1218 V 0 H 0 Z"
         transform="translate(-354.41461,-326.12791)"
         id="path96" />
    </clipPath>
    <clipPath
       clipPathUnits="userSpaceOnUse"
       id="clipPath98">
      <path
         d="M 0,794 H 1218 V 0 H 0 Z"
         transform="translate(-537.60601,-205.06541)"
         id="path98" />
    </clipPath>
    <clipPath
       clipPathUnits="userSpaceOnUse"
       id="clipPath100">
      <path
         d="M 0,794 H 1218 V 0 H 0 Z"
         transform="translate(-607.05862,-231.0747)"
         id="path100" />
    </clipPath>
    <clipPath
       clipPathUnits="userSpaceOnUse"
       id="clipPath102">
      <path
         d="M 0,794 H 1218 V 0 H 0 Z"
         transform="translate(-743.98242,-246.6831)"
         id="path102" />
    </clipPath>
    <clipPath
       clipPathUnits="userSpaceOnUse"
       id="clipPath104">
      <path
         d="M 0,794 H 1218 V 0 H 0 Z"
         transform="translate(-789.31014,-292.76561)"
         id="path104" />
    </clipPath>
    <clipPath
       clipPathUnits="userSpaceOnUse"
       id="clipPath106">
      <path
         d="M 0,794 H 1218 V 0 H 0 Z"
         transform="translate(-934.4893,-246.6831)"
         id="path106" />
    </clipPath>
    <clipPath
       clipPathUnits="userSpaceOnUse"
       id="clipPath108">
      <path
         d="M 0,794 H 1218 V 0 H 0 Z"
         transform="translate(-1034.0025,-246.6831)"
         id="path108" />
    </clipPath>
    <clipPath
       clipPathUnits="userSpaceOnUse"
       id="clipPath110">
      <path
         d="M 0,794 H 1218 V 0 H 0 Z"
         transform="translate(-1078.0732,-292.76561)"
         id="path110" />
    </clipPath>
    <clipPath
       clipPathUnits="userSpaceOnUse"
       id="clipPath112">
      <path
         d="M 0,794 H 1218 V 0 H 0 Z"
         transform="translate(0,2.5000001e-5)"
         id="path112" />
    </clipPath>
    <clipPath
       clipPathUnits="userSpaceOnUse"
       id="clipPath114">
      <path
         d="M 0,794 H 1218 V 0 H 0 Z"
         transform="translate(0,2.5000001e-5)"
         id="path114" />
    </clipPath>
    <clipPath
       clipPathUnits="userSpaceOnUse"
       id="clipPath116">
      <path
         d="M 0,794 H 1218 V 0 H 0 Z"
         transform="translate(-295.52341,-164.33111)"
         id="path116" />
    </clipPath>
    <clipPath
       clipPathUnits="userSpaceOnUse"
       id="clipPath118">
      <path
         d="M 0,794 H 1218 V 0 H 0 Z"
         transform="translate(-349.83591,-149.7861)"
         id="path118" />
    </clipPath>
    <clipPath
       clipPathUnits="userSpaceOnUse"
       id="clipPath120">
      <path
         d="M 0,794 H 1218 V 0 H 0 Z"
         transform="translate(0,2.5000001e-5)"
         id="path120" />
    </clipPath>
    <clipPath
       clipPathUnits="userSpaceOnUse"
       id="clipPath122">
      <path
         d="M 0,794 H 1218 V 0 H 0 Z"
         transform="translate(-403.78271,-148.96391)"
         id="path122" />
    </clipPath>
    <clipPath
       clipPathUnits="userSpaceOnUse"
       id="clipPath124">
      <path
         d="M 0,794 H 1218 V 0 H 0 Z"
         transform="translate(-420.57911,-164.33111)"
         id="path124" />
    </clipPath>
    <clipPath
       clipPathUnits="userSpaceOnUse"
       id="clipPath126">
      <path
         d="M 0,794 H 1218 V 0 H 0 Z"
         transform="translate(-474.94431,-175.4531)"
         id="path126" />
    </clipPath>
    <clipPath
       clipPathUnits="userSpaceOnUse"
       id="clipPath128">
      <path
         d="M 0,794 H 1218 V 0 H 0 Z"
         transform="translate(-527.47852,-148.96391)"
         id="path128" />
    </clipPath>
    <clipPath
       clipPathUnits="userSpaceOnUse"
       id="clipPath130">
      <path
         d="M 0,794 H 1218 V 0 H 0 Z"
         transform="translate(-544.38041,-164.33111)"
         id="path130" />
    </clipPath>
    <clipPath
       clipPathUnits="userSpaceOnUse"
       id="clipPath132">
      <path
         d="M 0,794 H 1218 V 0 H 0 Z"
         transform="translate(-570.80521,-164.33111)"
         id="path132" />
    </clipPath>
    <clipPath
       clipPathUnits="userSpaceOnUse"
       id="clipPath134">
      <path
         d="M 0,794 H 1218 V 0 H 0 Z"
         transform="translate(-644.32082,-152.292)"
         id="path134" />
    </clipPath>
    <clipPath
       clipPathUnits="userSpaceOnUse"
       id="clipPath136">
      <path
         d="M 0,794 H 1218 V 0 H 0 Z"
         transform="translate(-660.14992,-164.33111)"
         id="path136" />
    </clipPath>
    <clipPath
       clipPathUnits="userSpaceOnUse"
       id="clipPath138">
      <path
         d="M 0,794 H 1218 V 0 H 0 Z"
         transform="translate(-683.27642,-143.207)"
         id="path138" />
    </clipPath>
    <clipPath
       clipPathUnits="userSpaceOnUse"
       id="clipPath140">
      <path
         d="M 0,794 H 1218 V 0 H 0 Z"
         transform="translate(-736.33502,-175.4531)"
         id="path140" />
    </clipPath>
    <clipPath
       clipPathUnits="userSpaceOnUse"
       id="clipPath142">
      <path
         d="M 0,794 H 1218 V 0 H 0 Z"
         transform="translate(-805.27292,-148.96391)"
         id="path142" />
    </clipPath>
    <clipPath
       clipPathUnits="userSpaceOnUse"
       id="clipPath144">
      <path
         d="M 0,794 H 1218 V 0 H 0 Z"
         transform="translate(-822.17432,-164.33111)"
         id="path144" />
    </clipPath>
    <clipPath
       clipPathUnits="userSpaceOnUse"
       id="clipPath146">
      <path
         d="M 0,794 H 1218 V 0 H 0 Z"
         transform="translate(-847.6294,-175.4531)"
         id="path146" />
    </clipPath>
    <clipPath
       clipPathUnits="userSpaceOnUse"
       id="clipPath148">
      <path
         d="M 0,794 H 1218 V 0 H 0 Z"
         transform="translate(-901.5508,-152.292)"
         id="path148" />
    </clipPath>
    <clipPath
       clipPathUnits="userSpaceOnUse"
       id="clipPath150">
      <path
         d="M 0,794 H 1218 V 0 H 0 Z"
         transform="translate(-930.11912,-175.4531)"
         id="path150" />
    </clipPath>
  </defs>
  <sodipodi:namedview
     id="namedview1"
     pagecolor="#ffffff"
     bordercolor="#000000"
     borderopacity="0.25"
     inkscape:showpageshadow="2"
     inkscape:pageopacity="0.0"
     inkscape:pagecheckerboard="0"
     inkscape:deskcolor="#d1d1d1">
    <inkscape:page
       x="0"
       y="0"
       inkscape:label="1"
       id="page1"
       width="1624"
       height="1058.6667"
       margin="169.30267 101.8 128.16267 94.100266"
       bleed="0" />
  </sodipodi:namedview>
  <g
     id="layer-MC0"
     inkscape:groupmode="layer"
     inkscape:label="Layer 1">
    <path
       id="path1"
       d="m 0,0 c -7.88,-2.108 -16.118,7.631 -16.118,7.631 0,0 10.069,5.885 18.764,-4.267 0,0 2.025,-1.842 -1.592,-2.88 z"
       style="fill:#28b34b;fill-opacity:1;fill-rule:nonzero;stroke:none"
       transform="matrix(1.3333333,0,0,-1.3333333,879.05213,214.17187)"
       clip-path="url(#clipPath2)" />
    <path
       id="path3"
       d="m 0,0 c 2.647,7.677 1.252,9.768 1.252,9.768 1.175,2.425 -1.729,4.443 -1.729,4.443 -4.017,2.831 -5.304,7.082 -5.304,7.082 -1.761,0.774 -2.993,-0.578 -2.993,-0.578 0,0 -1.906,-9.586 7.923,-20.973 z"
       style="fill:#28b34b;fill-opacity:1;fill-rule:nonzero;stroke:none"
       transform="matrix(1.3333333,0,0,-1.3333333,858.8196,247.65173)"
       clip-path="url(#clipPath4)" />
    <path
       id="path5"
       d="m 0,0 c 3.816,5.789 -8.45,14.041 -8.45,14.041 -1.098,0.376 -0.252,-3.683 -0.252,-3.683 0.588,-3.202 -5.479,-2.636 -5.479,-2.636 0,0 5.079,-6.873 12.04,-8.045 z"
       style="fill:#28b34b;fill-opacity:1;fill-rule:nonzero;stroke:none"
       transform="matrix(1.3333333,0,0,-1.3333333,872.31773,229.45053)"
       clip-path="url(#clipPath6)" />
    <path
       id="path7"
       d="m 0,0 c -4.943,4.075 -5.587,12.89 -5.587,12.89 l 0.345,6.271 c 0,0 -0.342,2.57 2.089,1.399 0,0 4.6,-5.823 6.185,-7.468 0,0 2.67,-1.595 1.093,-4.695 L 1.54,-0.573 Z"
       style="fill:#28b34b;fill-opacity:1;fill-rule:nonzero;stroke:none"
       transform="matrix(1.3333333,0,0,-1.3333333,870.13147,261.48693)"
       clip-path="url(#clipPath8)" />
    <path
       id="path9"
       d="m 0,0 c -5.841,9.212 -15.607,5.933 -15.607,5.933 -4.076,-0.411 0.188,-3.874 0.188,-3.874 0,0 1.766,-0.779 3.838,-3.483 0,0 4.485,-3.446 10.801,-0.336 z"
       style="fill:#28b34b;fill-opacity:1;fill-rule:nonzero;stroke:none"
       transform="matrix(1.3333333,0,0,-1.3333333,897.99093,225.04627)"
       clip-path="url(#clipPath10)" />
    <path
       id="path11"
       d="M 0,0 C 5.805,4.811 -5.007,14.208 -5.007,14.208 -6.555,14.995 -6.59,11.325 -6.59,11.325 -6.229,8.324 -8.637,9.066 -10.811,9.396 -12.987,9.721 -11.822,8.05 -11.822,8.05 c 0,0 4.431,-6.9 10.754,-8.321 z"
       style="fill:#28b34b;fill-opacity:1;fill-rule:nonzero;stroke:none"
       transform="matrix(1.3333333,0,0,-1.3333333,884.86333,244.94787)"
       clip-path="url(#clipPath12)" />
    <path
       id="path13"
       d="M 0,0 C 6.045,-0.137 5.708,2.436 5.708,2.436 L 1.144,7.604 c -3.954,5.851 -9.683,3.848 -9.683,3.848 -3.675,0.249 -2.251,-2.486 -2.251,-2.486 0,0 1.995,-5.508 7.061,-7.636 z"
       style="fill:#28b34b;fill-opacity:1;fill-rule:nonzero;stroke:none"
       transform="matrix(1.3333333,0,0,-1.3333333,902.804,247.24347)"
       clip-path="url(#clipPath14)" />
    <path
       id="path15"
       d="m 0,0 c 2.178,3.993 -0.746,6.436 -0.746,6.436 -1.096,0.381 -5.563,7.93 -5.563,7.93 -1.03,3.398 -1.863,-1.6 -1.863,-1.6 l -0.997,-6.09 c 0,0 0.098,-6.467 4.704,-12.501 0,0 2.223,-1.403 4.319,4.308 z"
       style="fill:#28b34b;fill-opacity:1;fill-rule:nonzero;stroke:none"
       transform="matrix(1.3333333,0,0,-1.3333333,888.168,271.5404)"
       clip-path="url(#clipPath16)" />
    <path
       id="path17"
       d="m 0,0 c 1.08,8.898 -4.692,12.282 -4.692,12.282 -2.505,2.683 -2.188,0.547 -2.188,0.547 1.278,-4.042 -3.953,-3.003 -3.953,-3.003 -4.343,0.657 0.2,-4.089 0.2,-4.089 0,0 4.588,-5.601 9.418,-7.306 l 0.86,0.038 z"
       style="fill:#28b34b;fill-opacity:1;fill-rule:nonzero;stroke:none"
       transform="matrix(1.3333333,0,0,-1.3333333,898.0208,261.2812)"
       clip-path="url(#clipPath18)" />
    <path
       id="path19"
       d="m 0,0 c -4.691,-1.091 -10.861,5.942 -10.861,5.942 l -3.222,4.159 c 0,0 -2.135,3.995 1.619,2.233 0,0 3.956,-1.529 5.596,0.277 0,0 5.074,-2.345 7.442,-6.758 0,0 1.913,-3.791 0.695,-5.359 z"
       style="fill:#28b34b;fill-opacity:1;fill-rule:nonzero;stroke:none"
       transform="matrix(1.3333333,0,0,-1.3333333,918.67573,266.0312)"
       clip-path="url(#clipPath20)" />
    <path
       id="path21"
       d="m 0,0 c 2.585,8.972 -4.616,15.091 -4.616,15.091 -1.783,1.207 -1.165,-2.645 -1.165,-2.645 0.812,-3.414 -1.831,-2.248 -1.831,-2.248 0,0 -2.164,0.111 -4.134,0.664 -1.966,0.551 -0.068,-3.021 -0.068,-3.021 0,0 3.976,-6.281 10.116,-8.355 z"
       style="fill:#28b34b;fill-opacity:1;fill-rule:nonzero;stroke:none"
       transform="matrix(1.3333333,0,0,-1.3333333,908.696,279.74613)"
       clip-path="url(#clipPath22)" />
    <path
       id="path23"
       d="m 0,0 c 2.396,3.999 -0.901,9.664 -0.901,9.664 l -4.815,5.805 c -1.351,1.229 -1.441,-1.36 -1.441,-1.36 0.438,-4.514 -2.536,-5.52 -2.536,-5.52 l 0.308,-1.927 4.251,-7.558 c 0,0 2.697,-2.241 4.563,-0.64 z"
       style="fill:#28b34b;fill-opacity:1;fill-rule:nonzero;stroke:none"
       transform="matrix(1.3333333,0,0,-1.3333333,899.56907,293.1328)"
       clip-path="url(#clipPath24)" />
    <path
       id="path25"
       d="m 0,0 c 2.179,12.83 -4.503,17.252 -4.503,17.252 0,0 -0.931,-3.066 -1.105,-3.936 -0.176,-0.872 -1.689,-0.73 -1.689,-0.73 l -3.949,1.318 c 0,0 -0.773,-10.821 8.869,-13.808 z"
       style="fill:#28b34b;fill-opacity:1;fill-rule:nonzero;stroke:none"
       transform="matrix(1.3333333,0,0,-1.3333333,918.36653,301.1328)"
       clip-path="url(#clipPath26)" />
    <path
       id="path27"
       d="m 0,0 c -8.283,1.756 -10.958,12.409 -10.958,12.409 0,0 11.085,2.699 13.728,-7.313 L 2.908,2.3 c 0,0 0.801,-3.197 -1.844,-2.032 z"
       style="fill:#28b34b;fill-opacity:1;fill-rule:nonzero;stroke:none"
       transform="matrix(1.3333333,0,0,-1.3333333,925.96413,285.80987)"
       clip-path="url(#clipPath28)" />
    <path
       id="path29"
       d="m 0,0 c -10.026,7.313 -16.705,3.136 -16.705,3.136 0,0 2.215,-2.116 2.889,-2.636 0.667,-0.52 -0.113,-1.829 -0.113,-1.829 l -2.839,-3.003 c 0,0 8.917,-5.203 15.647,2.233 z"
       style="fill:#28b34b;fill-opacity:1;fill-rule:nonzero;stroke:none"
       transform="matrix(1.3333333,0,0,-1.3333333,783.55147,243.74733)"
       clip-path="url(#clipPath30)" />
    <path
       id="path31"
       d="m 0,0 c -5.769,7.343 -14.941,5.081 -14.941,5.081 -2.023,-0.74 1.46,-2.49 1.46,-2.49 3.243,-1.337 0.752,-2.799 0.752,-2.799 0,0 -1.352,-1.694 -2.953,-2.964 -1.598,-1.277 2.414,-1.829 2.414,-1.829 0,0 7.415,-0.446 12.691,3.321 z"
       style="fill:#28b34b;fill-opacity:1;fill-rule:nonzero;stroke:none"
       transform="matrix(1.3333333,0,0,-1.3333333,761.61133,244.61853)"
       clip-path="url(#clipPath32)" />
    <path
       id="path33"
       d="m 0,0 c 0.022,8.155 11.577,13.563 11.577,13.563 0,0 3.045,-11.257 -9.018,-16.992 0,0 -2.313,-1.479 -2.368,2.282 z"
       style="fill:#28b34b;fill-opacity:1;fill-rule:nonzero;stroke:none"
       transform="matrix(1.3333333,0,0,-1.3333333,691.586,243.63613)"
       clip-path="url(#clipPath34)" />
    <path
       id="path35"
       d="m 0,0 c -1.842,-0.916 1.283,-2.254 1.283,-2.254 2.912,-0.966 0.634,-2.624 0.634,-2.624 0,0 -0.019,-0.023 -0.044,-0.059 -0.211,-0.286 -1.21,-1.637 -2.406,-2.822 0.123,-0.687 0.556,-1.351 1.609,-1.77 0.16,-0.007 0.268,-0.013 0.268,-0.013 0,0 2.869,0.13 6.206,1.386 1.763,0.665 3.655,1.64 5.33,3.075 l 0.553,1.676 C 8.341,3.09 0,0 0,0"
       style="fill:#28b34b;fill-opacity:1;fill-rule:nonzero;stroke:none"
       transform="matrix(1.3333333,0,0,-1.3333333,722.9752,240.4316)"
       clip-path="url(#clipPath36)" />
    <path
       id="path37"
       d="m 0,0 c -11.081,2.559 -15.21,-3.37 -15.21,-3.37 0,0 2.633,-0.983 3.382,-1.18 0.753,-0.198 0.567,-1.581 0.567,-1.581 l -1.312,-3.556 c 0,0 9.389,-1.178 12.385,7.514 z"
       style="fill:#28b34b;fill-opacity:1;fill-rule:nonzero;stroke:none"
       transform="matrix(1.3333333,0,0,-1.3333333,721.2188,243.28053)"
       clip-path="url(#clipPath38)" />
    <path
       id="path39"
       d="M 0,0 C -3.512,5.648 -9.253,8.391 -9.253,8.391 -11.436,8.933 -13.3,7.331 -13.3,7.331 l -3.697,-3.847 1.754,-0.56 c 0,0 6.524,-5.509 7.61,-5.671 0,0 6.958,-1.174 8.186,0.181 l 0.38,1.094 z"
       style="fill:#28b34b;fill-opacity:1;fill-rule:nonzero;stroke:none"
       transform="matrix(1.3333333,0,0,-1.3333333,719.85867,270.50267)"
       clip-path="url(#clipPath40)" />
    <path
       id="path41"
       d="M 0,0 C 7.076,5.305 6.28,12.813 6.28,12.813 3.2,13.96 -4.713,8.18 -4.713,8.18 -4.072,3.896 -7.811,0.912 -7.811,0.912 l 1.332,-0.801 z"
       style="fill:#28b34b;fill-opacity:1;fill-rule:nonzero;stroke:none"
       transform="matrix(1.3333333,0,0,-1.3333333,718.91467,239.1992)"
       clip-path="url(#clipPath42)" />
    <path
       id="path43"
       d="m 0,0 c -1.633,-6.338 -4.51,-9.279 -4.877,-10.59 -0.368,-1.313 -2.908,-2.3 -3.383,-1.46 -0.473,0.839 -4.999,0.837 -4.999,0.837 0,0 -0.895,0.601 0.089,2.591 0,0 1.546,3.741 1.706,4.829 l 7.344,4.239 2.992,0.577 z"
       style="fill:#28b34b;fill-opacity:1;fill-rule:nonzero;stroke:none"
       transform="matrix(1.3333333,0,0,-1.3333333,746.22467,221.19467)"
       clip-path="url(#clipPath44)" />
    <path
       id="path45"
       d="M 0,0 C 2.133,0.536 5.05,7.147 5.05,7.147 5.465,11.913 -3.828,7.8 -3.828,7.8 L -8.02,5.22 c -3.189,-5.332 -1.178,-6.743 -1.178,-6.743 l 2.828,-0.51 c 0,0 4.593,-1.289 5.573,0.702 z"
       style="fill:#28b34b;fill-opacity:1;fill-rule:nonzero;stroke:none"
       transform="matrix(1.3333333,0,0,-1.3333333,759.14587,232.64973)"
       clip-path="url(#clipPath46)" />
    <path
       id="path47"
       d="M 0,0 C 6.575,2.261 0.835,5.004 0.835,5.004 -5.236,10.101 -10.583,4.665 -10.583,4.665 l -3.005,-4.677 c 0,0 -0.318,-2.388 1.189,-2.316 l 5.196,-0.395 c 0,0 4.747,0.014 5.728,2.005 z"
       style="fill:#28b34b;fill-opacity:1;fill-rule:nonzero;stroke:none"
       transform="matrix(1.3333333,0,0,-1.3333333,782.14653,232.39453)"
       clip-path="url(#clipPath48)" />
    <path
       id="path49"
       d="m 0,0 c 4.308,0.21 0.169,5.398 0.169,5.398 l -6.113,5.961 c -2.234,1.62 -4.407,1.944 -4.572,0.858 -0.161,-1.083 -5.026,-3.048 -5.026,-3.048 0,0 6.747,-5.716 7.712,-7.824 0,0 2.277,-2.477 6.348,-1.849 z"
       style="fill:#28b34b;fill-opacity:1;fill-rule:nonzero;stroke:none"
       transform="matrix(1.3333333,0,0,-1.3333333,732.8236,271.02867)"
       clip-path="url(#clipPath50)" />
    <path
       id="path51"
       d="m 0,0 c 3.924,0.19 0.146,5.147 0.146,5.147 l -5.593,5.688 c -2.039,1.548 -4.023,1.862 -4.171,0.826 -0.139,-1.033 -4.581,-2.895 -4.581,-2.895 0,0 6.171,-5.456 7.053,-7.471 0,0 2.081,-2.365 5.793,-1.772 z"
       style="fill:#28b34b;fill-opacity:1;fill-rule:nonzero;stroke:none"
       transform="matrix(1.3333333,0,0,-1.3333333,748.46547,268.2852)"
       clip-path="url(#clipPath52)" />
    <path
       id="path53"
       d="m 0,0 c -2.344,-0.547 -8.001,0.476 -8.001,0.476 -2.699,2.241 -5.83,8.994 -5.83,8.994 0,0 5.175,0.035 7.03,1.849 0,0 5.956,-7.261 6.45,-8.53 L 0.145,1.518 Z"
       style="fill:#28b34b;fill-opacity:1;fill-rule:nonzero;stroke:none"
       transform="matrix(1.3333333,0,0,-1.3333333,766.5716,267.0912)"
       clip-path="url(#clipPath54)" />
    <path
       id="path55"
       d="M 0,0 C 4.776,-0.63 0.464,3.693 0.464,3.693 L -2.95,7.409 C -4.346,9.5 -5.821,8.779 -5.821,8.779 -7.876,6.735 -12.892,7.791 -12.892,7.791 l 2.117,-3.566 c 0,0 3.468,-4.791 7.568,-4.81 z"
       style="fill:#28b34b;fill-opacity:1;fill-rule:nonzero;stroke:none"
       transform="matrix(1.3333333,0,0,-1.3333333,781.4824,266.08067)"
       clip-path="url(#clipPath56)" />
    <path
       id="path57"
       d="m 0,0 c -78.99,34.024 -133.601,-20.726 -133.601,-20.726 -50.522,-45.811 -43.88,-109.232 -43.88,-109.232 0,0 3.291,-67.787 59.069,-103.587 l 5.323,10.291 c 0,0 -31.303,18.216 -31.798,55.082 0,0 -3.652,41.883 36.653,64.877 0,0 38.346,23.219 73.748,-6.125 l 0.158,1.19 c -2.045,2.055 -5.976,5.317 -5.976,5.317 -44.801,36.331 -86.151,1.641 -86.151,1.641 -37.712,-29.658 -24.985,-78.545 -24.985,-78.545 0,0 -14.613,25.503 -3.294,63.367 0,0 8.677,25.662 26.14,39.237 l 1.258,0.707 1.313,-0.37 c 4.252,-7.556 16.038,-5.909 16.038,-5.909 4.944,0.242 0.455,3.91 0.455,3.91 l -4.749,4.513 c -2.301,2.908 -4.799,1.063 -4.799,1.063 l -4.077,-0.414 c -2.678,1.807 0.107,2.163 0.107,2.163 8.794,1.073 10.091,5.447 10.091,5.447 5.195,4.138 1.074,4.582 1.074,4.582 -7.28,3.316 -12.973,-3.864 -12.973,-3.864 l -2.25,-2.482 c -3.792,2.618 4.807,7.569 4.807,7.569 3.384,1.456 1.489,9.35 1.489,9.35 -1.479,3.806 -2.851,0.936 -2.851,0.936 l -3.858,-4.933 c -4.031,-5.8 -2.834,-17.18 -2.834,-17.18 -32.576,-22.074 -33.837,-71.747 -33.837,-71.747 0,0 -7.687,38.455 16.238,74.348 0,0 20.833,37.463 69.738,38.764 0,0 53.352,3.824 81.11,-47.705 l 0.854,0.389 -0.087,0.383 c -21.359,53.318 -70.306,57.416 -70.306,57.416 -35.751,5.153 -62.49,-17.307 -71.012,-25.621 -1.889,-1.842 -2.885,-2.988 -2.885,-2.988 0,0 0.822,1.287 2.495,3.374 7.803,9.773 34.221,37.209 83.036,34.431 0,0 21.1,0.807 41.672,-14.161 0,0 -3.267,-12.665 5.994,-21.276 0,0 1.528,-0.357 2.078,1.609 l 0.38,1.097 c 2.825,4.021 -0.514,10.544 -0.514,10.544 l -4.336,4.971 c 0,0 -0.456,4.935 1.379,2.652 0,0 3.637,-8.233 13.158,-8.852 l 1.477,0.717 c -1.57,10.061 -11.399,12.608 -11.399,12.608 0,0 -1.394,2.089 1.429,1.576 0,0 4.358,-0.865 6.412,-3.14 0,0 5.051,-1.91 6.8,2.058 l 0.381,1.097 c -5.416,4.913 -11.237,4.846 -11.237,4.846 -6.712,0.537 -7.193,-2.937 -7.193,-2.937 -1.023,-1.128 -3.471,0.479 -3.471,0.479 -37.175,19.067 -74.804,9.907 -83.321,7.424 -1.165,-0.338 -1.79,-0.556 -1.79,-0.556 0,0 0.588,0.297 1.694,0.786 8.719,3.826 49.933,19.583 95.02,-2.346 0,0 54.854,-21.024 73.991,-85.329 l 0.887,0.226 C 59.135,-23.302 0,0 0,0"
       style="fill:#28b34b;fill-opacity:1;fill-rule:nonzero;stroke:none"
       transform="matrix(1.3333333,0,0,-1.3333333,850.0104,169.84893)"
       clip-path="url(#clipPath58)" />
    <path
       id="path59"
       d="m 0,0 -1.734,0.136 -2.789,-0.356 -5.81,-0.28 -4.918,-0.883 -0.808,-1.119 1.948,-0.122 3.013,0.149 1.118,-0.809 2.118,0.748 2.186,-0.54 1.966,-0.553 1.959,-0.334 1.71,0.298 C 4.086,0.2 0,0 0,0"
       style="fill:#231f20;fill-opacity:1;fill-rule:nonzero;stroke:none"
       transform="matrix(1.3333333,0,0,-1.3333333,968.32613,500.73507)"
       clip-path="url(#clipPath60)" />
    <path
       id="path61"
       d="M 0,0 2.36,0.331 4.51,0.435 6.48,-0.117 8.906,-1.292 9.073,-0.208 7.297,0.788 5.963,1.587 4.225,1.93 1.19,2.214 -1.396,2.091 -3.072,1.145 l -1.875,-1.386 -1.649,-1.586 0.265,-1.067 -1.717,-0.087 -1.305,0.153 -4.966,0.19 0.713,-1.473 1.293,0.063 1.968,-0.55 2.397,-0.534 2.963,1.225 2.346,0.545 1.875,1.383 -0.494,1.271 z"
       style="fill:#231f20;fill-opacity:1;fill-rule:nonzero;stroke:none"
       transform="matrix(1.3333333,0,0,-1.3333333,902.7936,495.86)"
       clip-path="url(#clipPath62)" />
    <path
       id="path63"
       d="m 0,0 -2.592,0.09 -2.368,-0.114 -3.011,-0.147 -2.182,0.541 -1.058,-0.484 -2.591,0.09 -1.68,-0.943 c -4.039,-1.279 -0.533,-2.402 -0.533,-2.402 l 2.315,1.194 1.056,0.483 1.936,0.093 1.962,-0.334 1.975,-0.768 1.93,0.308 1.28,0.277 2.397,-0.528 2.183,-0.539 1.68,0.939 C 5.22,-0.826 0,0 0,0"
       style="fill:#231f20;fill-opacity:1;fill-rule:nonzero;stroke:none"
       transform="matrix(1.3333333,0,0,-1.3333333,885.13413,505.34573)"
       clip-path="url(#clipPath64)" />
    <path
       id="path65"
       d="m 0,0 -1.55,0.784 -1.7,-0.513 -0.164,-1.09 -11.202,-0.325 -0.139,-1.519 -1.529,0.359 -1.053,-0.48 0.725,-1.695 1.131,-1.023 2.295,1.625 1.667,1.158 1.721,0.084 1.957,-0.335 3.457,-0.049 1.945,-0.12 3.242,-0.061 0.173,0.873 -1.355,1.227 z"
       style="fill:#231f20;fill-opacity:1;fill-rule:nonzero;stroke:none"
       transform="matrix(1.3333333,0,0,-1.3333333,853.66667,502.84373)"
       clip-path="url(#clipPath66)" />
    <path
       id="path67"
       d="m 0,0 -0.818,-0.204 -1.933,0.231 -1.326,-0.425 c -3.106,-0.453 -0.56,-1.347 -0.56,-1.347 l 1.817,0.528 0.82,0.202 1.455,-0.079 1.444,-0.329 1.427,-0.579 1.461,0.042 0.98,0.072 1.756,-0.471 1.596,-0.463 1.322,0.424 c 1.98,0.642 -1.867,1.48 -1.867,1.48 l -1.933,0.231 -1.778,0.1 -2.265,0.128 z"
       style="fill:#231f20;fill-opacity:1;fill-rule:nonzero;stroke:none"
       transform="matrix(1.3333333,0,0,-1.3333333,766.00133,497.59373)"
       clip-path="url(#clipPath68)" />
    <path
       id="path69"
       d="m 0,0 -1.918,-0.52 -1.087,0.163 -1.516,0.141 -0.851,-0.256 0.289,-1.495 1.507,0.073 2.593,-0.087 2.379,-0.102 1.752,-0.565 0.324,2.174 -1.085,0.162 z"
       style="fill:#231f20;fill-opacity:1;fill-rule:nonzero;stroke:none"
       transform="matrix(1.3333333,0,0,-1.3333333,781.18947,502.9212)"
       clip-path="url(#clipPath70)" />
    <path
       id="path71"
       d="M 0,0 1.057,0.483 2.582,0.123 3.68,-0.255 4.759,-0.198 6.458,0.315 7.504,1.013 8.981,1.73 10.055,1.784 10.443,2.667 8.722,2.581 7.82,3.399 6.096,3.315 4.654,1.955 2.072,1.826 -0.294,1.712 -2.007,1.414 -3.504,1.125 l 0.053,-1.08 2.375,-0.097 z"
       style="fill:#231f20;fill-opacity:1;fill-rule:nonzero;stroke:none"
       transform="matrix(1.3333333,0,0,-1.3333333,772.81507,496.41867)"
       clip-path="url(#clipPath72)" />
    <path
       id="path73"
       d="m 0,0 -1.368,0.03 -0.767,-0.564 0.291,-1.497 1.72,0.084 1.499,0.287 1.667,1.16 3.014,0.145 1.356,-1.223 1.137,-1.241 0.751,-2.124 1.732,-0.129 1.967,-0.553 1.53,-0.354 2.152,0.1 1.751,-0.559 1.478,0.717 -1.338,0.799 -2.171,0.325 -0.258,0.852 1.727,0.08 1.275,0.282 1.928,0.307 1.269,0.492 -1.119,0.809 -1.505,-0.072 -2.161,0.108 -0.85,-0.254 -1.077,-0.052 c 0,0 -0.849,-0.256 -2.797,-0.138 -1.946,0.121 0.145,1.521 0.145,1.521 L 14.443,0.269 13.947,1.541 12.863,1.702 12.602,2.554 11.281,3.135 9.383,2.18 7.889,1.891 6.781,2.483 4.524,4.533 3.419,5.129 2.535,5.514 0.525,6.927 -1.228,7.489 -1.064,8.577 0.009,8.628 1.108,8.25 2.176,8.518 2.747,10.054 4.071,9.472 5.586,9.331 l 1.11,-0.596 2.553,0.772 0.742,2.409 1.332,-0.792 1.528,-0.362 1.489,0.502 1.707,0.302 0.175,0.868 -1.516,0.141 -1.316,0.367 -0.872,0.177 -1.967,0.551 -2.783,-0.352 -1.22,-1.569 -1.507,-0.072 -0.874,0.172 c 0,0 -0.867,0.175 -1.513,0.143 -0.648,-0.033 -1.301,0.154 -1.301,0.154 L 0.111,11.004 c 0,0 -0.86,-0.038 -1.528,0.361 -0.664,0.397 0.154,1.299 0.154,1.299 L 0.426,13.395 1.689,14.103 -0.29,14.871 -1.108,13.969 -2.983,12.582 -3.298,10.197 -4.743,8.83 -3.156,7.182 -2.006,5.729 -0.046,5.391 1.716,4.613 3.727,3.202 4.814,3.037 4.445,1.724 2.081,1.609 1.272,0.493 Z"
       style="fill:#231f20;fill-opacity:1;fill-rule:nonzero;stroke:none"
       transform="matrix(1.3333333,0,0,-1.3333333,751.19787,507.24613)"
       clip-path="url(#clipPath74)" />
    <path
       id="path75"
       d="m 0,0 0.837,0.472 1.657,1.373 0.572,1.54 c 0,0 -2.562,-0.555 -3.203,-0.59 -0.645,-0.028 -1.64,-1.806 -1.64,-1.806 0,0 -3.01,-0.147 -4.089,-0.199 -1.075,-0.049 -1.691,-0.727 -2.54,-0.986 -0.85,-0.256 -4.503,-0.647 -4.503,-0.647 l -0.589,-1.11 1.546,-0.787 1.326,-0.583 1.075,0.054 1.272,0.494 1.055,0.479 1.533,-0.572 1.112,-0.592 1.76,-0.778 1.509,0.072 1.283,0.276 -0.507,1.489 -1.097,0.375 -1.332,0.799 1.485,0.507 z"
       style="fill:#231f20;fill-opacity:1;fill-rule:nonzero;stroke:none"
       transform="matrix(1.3333333,0,0,-1.3333333,724.93813,493.5632)"
       clip-path="url(#clipPath76)" />
    <path
       id="path77"
       d="m 0,0 1.742,-0.347 1.991,-0.983 1.33,-0.798 1.123,-0.807 1.349,-1.23 0.732,-1.687 1.567,-1.221 0.937,-1.464 1.075,0.051 -1.738,4.662 L 8.513,-1.961 6.662,0.537 4.876,1.746 4.286,0.637 2.756,0.995 1.66,1.373 0.124,1.947 -2.459,1.818 -4.83,1.706 -5.613,0.155 -1.947,0.118 Z"
       style="fill:#231f20;fill-opacity:1;fill-rule:nonzero;stroke:none"
       transform="matrix(1.3333333,0,0,-1.3333333,930.47653,390.68227)"
       clip-path="url(#clipPath78)" />
    <path
       id="path79"
       d="M 0,0 -1.354,1.228 -3.129,2.221 -2.83,0.51 -2.1,-1.179 c 0,0 2.02,-1.63 -0.133,-1.736 l -1.783,1.209 -0.729,1.691 -1.487,-0.503 -1.732,0.13 -1.289,-0.062 -0.955,1.897 -1.213,2.743 -0.717,1.472 -1.622,2.298 -1.398,2.089 -0.904,0.819 -0.922,1.25 0.082,-1.722 1.009,-2.973 0.789,-2.979 0.354,-2.788 1.159,-1.671 1.374,-1.659 1.336,-0.796 -0.368,-1.31 -0.788,-1.554 c -0.223,-4.324 -3.38,-1.453 -3.38,-1.453 l -0.3,1.707 -0.303,1.714 0.104,2.376 -0.65,4.501 -0.649,4.494 -1.637,7.043 -0.041,0.86 1.507,0.074 1.169,-1.884 1.179,-2.1 0.934,-1.467 0.923,-1.25 1.378,-1.659 L -10.912,7.02 -9.815,6.642 -8.073,6.297 -7.2,6.12 -6.353,6.375 -5.746,7.271 -4.693,7.757 -3.78,6.716 -3.952,5.848 -4.812,5.807 -2.999,3.953 -1.868,2.928 C -1.868,2.928 3.216,0.374 0,0 m -18.087,21.339 0.956,0.317 0.403,-0.043 0.67,-1.875 -0.18,-0.466 -1.305,-1.139 -0.828,1.035 -0.452,1.324 z m 3.672,-4.352 1.825,-2.068 1.775,-0.992 1.784,-1.209 0.904,-0.816 1.136,-1.242 c 0,0 1.263,-3.817 -3.143,-1.877 l -1.579,1.434 -1.367,1.444 -1.17,1.881 -1.146,1.454 -0.259,0.854 z m 0.167,5.4 0.8,1.335 0.023,0.371 1.799,2.631 0.183,0.115 0.597,1.108 -0.139,2.799 -0.997,2.755 1.108,-0.596 0.999,-2.751 0.716,-1.479 0.102,-2.15 -0.764,-1.981 -1.218,-1.567 -1.435,-1.58 -0.604,-0.89 -1.044,-0.699 -0.923,1.244 z m 5.695,-6.192 0.269,-1.065 -1.089,0.161 -1.108,0.594 -1.524,0.357 -1.334,0.8 -0.259,0.851 1.443,1.363 z m -10.618,-30.07 -0.113,-2.166 -0.14,-1.515 -1.251,-0.922 -0.573,-1.538 -0.543,-2.18 -0.746,-2.413 -0.755,-2.196 -0.298,1.716 0.336,1.956 -0.699,1.044 1.2,1.998 0.789,1.552 1.37,2.871 0.537,2.18 0.188,1.858 0.251,2.479 0.721,-1.478 z m -5.929,-6.76 c -0.625,-0.459 -2.982,-0.794 -2.982,-0.794 l -1.518,0.147 -0.583,-1.325 -0.528,-2.402 1.093,-0.376 1.044,0.698 1.674,1.16 0.491,-1.268 0.689,-0.828 -1.147,-3.077 -0.961,-2.421 -0.512,-2.828 -1.268,-0.494 -0.258,0.85 -1.765,-3.538 -1.6,-2.665 -0.971,-2.204 -0.787,-1.549 -0.583,-1.321 0.891,-0.603 1.401,2.223 0.586,1.322 0.752,2.197 1.122,-0.81 -1.156,-2.862 -0.359,-1.526 -0.133,-1.733 -0.385,-0.882 -0.841,-0.471 -1.034,-0.913 -1.261,-0.71 0.115,-2.369 -0.955,-2.632 -0.34,-1.74 -0.983,-1.99 -0.348,-1.744 0.146,-3.016 0.76,-2.332 -0.152,-1.302 0.095,-1.938 -0.829,-0.69 -1.793,1.425 -0.291,1.498 -1.701,-0.515 1.104,3.937 1.307,4.16 0.973,2.205 0.855,4.572 0.519,2.614 0.103,2.377 -0.107,2.151 0.072,3.026 1.183,2.213 0.96,2.422 0.749,2.409 0.787,1.546 0.552,1.969 0.132,1.731 -0.074,1.506 -0.515,1.704 -0.502,1.485 -0.307,1.926 0.12,1.947 0.358,1.527 1.617,2.236 0.809,1.118 0.767,1.978 0.14,1.518 0.347,1.738 0.56,1.757 0.564,1.751 0.369,1.314 0.368,1.311 -0.292,1.5 -1.246,-0.924 -0.717,-3.056 -0.927,-3.065 -1.156,-2.86 -0.521,-2.614 -1.617,-2.237 -1.22,-1.57 -1.798,-2.891 c 0,0 -6.614,-10.461 -26.241,-6.021 l -1.776,0.993 c 0,0 -1.568,1.218 -2.234,1.616 -0.669,0.399 -2.237,1.616 -2.237,1.616 l -1.99,0.983 -1.577,1.432 -2.686,2.029 1.4,2.23 0.795,1.329 0.524,2.615 0.121,1.947 0.11,2.161 -1.079,-0.05 -0.895,-3.712 -0.982,-1.988 -1.576,-3.097 -2.332,-5.29 -7.166,-7.899 -4.116,-4.081 -1.437,-1.58 -1.643,-1.59 -2.889,-2.731 -1.856,-1.815 -1.38,-2.657 -1.308,0.367 -1.09,0.166 -1.037,-0.914 0.086,-1.721 1.56,-1.003 -0.532,-2.4 -1.004,-1.56 -0.742,-2.408 -0.113,-2.163 -0.765,-1.978 -0.325,-2.172 -0.091,-2.592 -2.359,-0.331 -1.137,1.238 1.165,2.646 0.542,2.183 0.316,2.387 0.704,3.27 0.775,1.762 0.53,2.4 0.297,2.819 0.344,1.744 0.819,0.902 2.029,2.684 1.218,1.573 1.186,2.215 1.024,1.128 0.799,1.333 0.806,1.118 0.388,0.883 -0.899,0.819 1.656,1.373 0.992,6.303 c 0,0 -0.023,4.964 -3.726,14.489 l -0.728,1.688 c 0,0 -4.643,11.208 2.746,14.59 l 1.869,1.383 2.286,1.834 2.312,1.191 2.53,1.204 1.48,0.719 2.096,1.179 1.701,0.515 1.979,-0.766 1.958,-0.337 1.968,-0.551 0.924,-1.25 1.107,-0.591 1.312,-0.371 0.892,-0.603 c 0,0 3.299,-1.352 2.113,0.964 l -1.572,1.221 3.874,0.188 1.982,-0.772 1.716,0.089 2.166,-0.111 2.366,0.111 2.801,0.138 1.729,-0.133 3.005,0.364 1.483,0.501 1.887,1.172 1.268,0.491 0.799,1.332 -0.923,1.252 -1.178,2.1 -0.109,2.152 0.565,1.754 1.041,0.695 1.274,0.496 1.689,0.729 1.28,0.278 2.228,-1.406 1.559,-1.001 3.137,-2.435 2.976,-3.521 1.837,-2.284 0.973,-2.325 2.182,-4.856 2.559,-3.974 2.095,-3.133 0.977,-2.328 0.935,-1.463 0.718,-1.478 0.014,-4.743 -0.692,-3.485 -1.144,-3.078 -0.768,-1.976 c 0,0 -0.77,-1.983 -1.391,-2.442 m -16.516,-50.846 -1.969,0.551 -0.889,0.598 -1.528,0.361 0.735,2.627 0.293,2.816 2.233,2.917 0.29,-1.498 -0.81,-1.116 -0.131,-1.734 -0.586,-1.322 0.925,-1.252 1.346,-1.011 z m -6.967,10.231 c 0,0 1.666,1.429 3.68,3.839 1.687,2.008 3.612,4.693 5.033,7.802 l 0.922,-1.252 -0.789,-1.546 -0.388,-0.883 -0.563,-1.753 -1.476,-0.717 -0.817,-0.905 -0.152,-1.302 -2.523,-1.415 -0.568,-1.538 -1.035,-0.911 z m 7.251,28.395 -0.515,1.701 2.325,0.976 0.986,-2.539 0.965,-2.111 -1.348,-3.301 -0.965,2.108 -0.944,1.683 z m 6.289,3.757 -0.274,-3.25 -1.573,1.219 -0.511,1.701 z m -9.257,-0.451 -1.3,0.153 2.112,0.966 2.086,1.393 2.315,1.194 1.466,0.934 1.044,0.698 0.75,-2.121 -1.475,-0.719 -1.27,-0.493 -2.334,-0.761 -1.7,-0.516 z m -7.027,-10.694 -1.293,-0.063 0.321,-2.144 c 0,0 1.826,-2.069 0.146,-3.009 -1.681,-0.944 -2.949,-1.438 -2.949,-1.438 l 0.572,1.538 0.805,1.117 -0.082,1.722 -1.141,1.236 -0.275,1.284 -1.12,0.809 -1.159,1.668 1.98,-0.763 1.064,0.263 0.841,0.472 z m -7.427,6.326 -1.55,0.791 -0.717,1.471 1.959,-0.337 2.192,-0.754 1.283,0.276 3.235,-0.057 -3.298,-3.181 z m -6.85,-5.512 -0.36,-1.527 0.503,-1.485 -0.601,-0.89 -0.928,1.25 -0.109,2.365 0.354,1.528 1.281,0.275 z m -16.838,9.107 0.84,0.471 2.293,1.622 c 0,0 1.282,0.277 1.938,0.095 0.655,-0.182 1.913,0.526 1.913,0.526 l 1.981,-0.765 -1.279,-0.28 -2.348,-0.546 -1.938,-0.094 -1.475,-0.721 z m 14.428,-8.356 -1.18,-2.433 -1.165,-2.645 -0.411,-4.763 -0.31,-2.606 -1.001,-1.559 -0.787,-1.549 -0.314,-2.386 -0.573,-1.539 -2.043,2.058 -1.818,1.855 -1.426,2.733 -0.974,2.326 -1.029,3.403 -0.801,3.196 -0.547,2.344 -0.072,1.506 -0.102,2.152 0.136,1.521 0.166,1.083 0.142,1.518 c 0.873,-0.173 2.745,1.212 2.745,1.212 0,0 1.723,0.086 2.371,0.115 0.643,0.032 2.538,0.986 2.538,0.986 l 2.334,0.764 1.51,0.069 4.181,-1.739 -0.479,-3.473 -0.118,-1.946 z m -20.417,2.887 0.582,1.322 c 0,0 0.367,1.316 1.01,1.343 0.647,0.037 1.437,1.581 1.437,1.581 l 1.658,1.378 -0.092,-2.597 0.085,-1.718 -0.321,-2.174 -0.371,-1.309 -0.142,-1.52 -0.892,0.604 -1.354,1.227 -0.69,0.831 z m 13.664,-28.243 -0.851,-0.256 -1.095,0.379 -0.793,2.984 -0.735,1.905 -2.088,2.918 -1.168,1.883 -0.922,1.255 -1.163,1.666 -0.92,1.251 -0.926,1.246 -0.116,2.369 -0.102,2.151 -0.072,1.507 -0.905,0.818 -0.786,-1.551 -0.154,-1.302 -0.779,-1.761 -0.785,7.301 0.851,0.254 2.235,-1.62 1.323,-0.58 0.893,-0.606 c 0,0 2.255,-10.889 5.424,-13.971 l 0.934,-1.469 1.805,-1.638 1.57,-1.216 0.932,-1.462 c 0,0 3.368,-2.641 -1.607,-2.455 m -2.004,-3.115 -1.055,-0.481 -1.508,-0.076 -2.389,0.316 1.199,1.999 -1.536,0.573 -0.493,1.274 -3.251,0.271 -2.164,0.11 -1.689,-0.729 -1.916,-0.524 -2.224,1.403 -1.705,-0.515 -1.472,-0.722 -1.847,2.502 -1.149,1.455 -1.375,1.658 -1.437,2.95 0.498,3.044 1.362,3.087 0.959,2.416 1.219,1.575 1.198,1.996 1.65,1.588 2.056,2.046 1.262,0.706 1.422,1.799 0.226,-4.74 c 0,0 -1.357,-3.083 1.371,-5.969 l 3.159,-2.867 2.285,-2.691 2.087,-2.922 1.199,-2.53 1.171,-1.887 0.952,-1.893 0.516,-1.703 0.7,-1.042 1.916,0.524 0.494,-1.269 z m -23.884,0.783 -0.941,-1.125 -0.62,1.053 -0.342,1.329 0.527,0.838 0.692,0.301 0.293,-0.043 0.514,-1.888 z m -9.513,-1.544 -1.27,-0.491 -0.787,-1.548 -0.895,0.602 1.187,2.218 -0.904,0.818 -1.353,1.228 -1.527,0.355 -2.429,1.178 -2.182,0.539 -1.682,-0.941 -1.475,-0.718 -3.387,3.071 0.174,0.87 -0.134,2.799 -0.299,1.709 -0.34,2.574 0.773,1.761 0.543,2.187 0.746,2.408 1.33,3.73 2.117,5.279 2.304,1.408 1.87,1.384 1.089,-0.161 -0.54,-2.186 -0.552,-1.965 -0.334,-1.957 -1.49,-0.504 -1.474,-0.721 -1.247,-0.919 -1.639,-1.813 1.132,-1.024 1.934,0.097 2.572,0.341 1.934,0.097 1.613,-2.079 1.611,-2.083 2.278,-2.477 1.397,-2.088 -0.143,-1.517 -1.883,-5.704 0.103,-2.147 1.175,-1.888 1.331,-0.795 z m -5.677,-3.076 -0.84,-0.476 -1.355,1.229 -1.342,1.017 -1.151,1.451 0.839,0.475 1.273,0.494 0.882,-0.39 1.105,-0.597 0.063,-1.288 -1.516,0.14 1.989,-0.981 z m -12.821,19.651 -0.333,-1.955 -0.109,-2.164 0.305,-1.924 0.269,-1.068 0.052,-1.075 -2.581,-0.126 -1.722,-0.085 -0.707,1.257 1.226,1.359 0.93,3.065 0.96,2.42 0.49,3.258 0.305,2.605 -0.106,2.15 0.357,1.529 5.276,2.411 -1.941,-4.405 -1.168,-2.646 -0.735,-2.627 z m -7.068,-9.834 -3.837,3.48 -2.043,2.059 -1.579,1.435 -1.57,1.216 c 0,0 -0.717,1.477 0.979,1.988 1.702,0.515 3.764,2.558 3.764,2.558 l 2.109,0.968 1.67,1.156 2.086,1.396 1.702,0.515 c 0,0 1.867,1.599 0.903,-0.82 l 0.158,-3.231 -0.52,-2.61 -0.771,-1.981 -0.958,-2.414 -0.551,-1.971 -0.769,-1.981 1.162,-1.665 0.777,-2.771 z m 21.318,18.512 -0.829,-0.691 -1.035,-0.916 -0.606,-0.887 -3.011,-0.147 -1.094,0.38 1.449,1.146 1.478,0.719 1.24,1.14 1.292,0.061 z m -0.535,2.128 -1.291,-0.06 0.349,6.052 1.069,0.27 z m -21.394,-25.845 -1.336,0.796 -20.191,11.531 -0.768,2.551 1.064,0.273 2.139,0.317 0.112,2.161 -0.878,0.388 0.091,2.595 -0.581,2.99 -0.337,2.571 -0.928,5.783 -1.155,5.981 -1.049,3.836 -1.895,7.886 -1.359,5.763 -0.396,1.494 2.861,1.451 0.775,-3.008 3.326,-15.154 1.163,-6.201 0.865,-4.484 0.704,-5.577 0.7,-5.574 1.71,0.299 1.262,0.708 18.89,10.842 1.71,0.301 -18.865,-11.271 -4.633,-2.388 0.064,-1.287 46.769,27.506 -0.243,-3.897 -41.542,-24.017 1.36,-1.442 2.476,-2.037 2.283,-2.694 2.731,-2.884 5.682,-5.982 z m -27.92,58.627 -0.734,2.751 -1.376,6.19 2.121,0.751 1.229,-3.172 1.255,-3.608 0.478,-1.85 z m -3.422,-4.063 -1.064,-0.269 -1.947,0.122 -1.128,1.023 -0.503,1.487 -2.4,0.531 -1.967,0.552 -2.166,0.112 -1.567,1.212 -2.173,0.33 -1.756,0.561 -1.771,0.995 -1.767,0.776 -4.491,3.664 1.691,5.26 0.57,1.537 0.509,2.828 2.634,-0.95 2.441,-1.393 c 0,0 3.27,-0.7 1.21,-2.744 l -1.023,-1.127 -0.562,-1.756 2.904,-2.012 2.685,-2.03 c 0,0 2.677,-1.81 3.334,-1.996 0.654,-0.182 3.065,-0.928 3.065,-0.928 l 2.167,-0.111 1.103,-0.595 2.345,0.546 -0.356,-1.528 0.943,-1.679 c 0,0 3.531,-1.552 -0.96,-2.418 m -6.92,-8.534 1.139,-1.235 -0.807,-1.122 -2.185,0.542 -1.331,0.799 -1.948,0.12 -2.196,0.758 -1.504,-0.075 -0.915,1.035 -0.76,2.335 -1.374,1.659 -1.118,0.808 -0.742,1.905 -0.716,1.475 -1.547,0.791 -0.081,-2.813 -0.348,-1.738 -0.55,-1.969 0.298,-1.709 -1.313,0.365 -2.193,0.76 -2.408,0.74 -2.853,0.938 -1.742,0.35 -1.523,0.356 -1.744,0.35 1.165,2.646 1.308,4.159 1.574,3.098 1.317,3.948 1.373,2.87 1.121,3.503 1.546,3.743 0.99,1.775 0.308,2.606 1.194,1.998 1.6,2.663 c 0,0 3.632,5.14 11.131,10.681 l 1.051,0.482 0.903,-0.816 0.904,-0.82 0.925,-1.25 0.933,-1.466 -2.377,0.1 -1.526,0.356 -1.549,0.79 0.945,-1.682 1.32,-0.579 0.885,-0.392 1.125,-1.023 0.933,-1.465 0.377,-3.215 -0.953,-2.64 -1.178,-2.427 -0.971,-2.204 -1.625,-2.018 -1.21,-1.786 -3.107,1.79 -2.235,1.619 -1.109,0.59 -1.976,0.769 -1.322,0.585 1.615,2.235 0.787,1.549 0.818,0.901 0.606,0.893 0.389,0.88 -1.129,1.025 1.679,0.945 1.004,1.557 1.455,1.149 0.818,0.902 0.154,1.301 -1.259,-0.709 -0.811,-1.114 -1.876,-1.385 -0.826,-0.688 -1.425,-1.799 -0.142,-1.514 -0.779,-1.762 -1.388,-2.44 -1.403,-2.225 0.491,-1.271 1.335,-0.799 -1.712,-9.143 -0.554,-1.968 3.62,-3.49 -1.267,-0.495 -0.84,-0.471 -1.313,0.365 0.063,-1.29 4.89,-3.002 1.988,-0.979 1.776,-0.996 0.877,-0.384 1.359,-1.231 0.905,-0.816 0.891,-0.604 1.054,0.484 -3.623,3.488 -1.322,0.583 -0.904,0.822 -1.989,0.983 -1.545,0.784 -0.904,0.82 1.949,-0.122 2.203,-0.974 1.067,0.274 1.555,-1.007 1.313,-0.37 1.335,-0.794 z m 5.344,-16.784 0.513,-1.701 0.065,-1.288 -1.851,-1.818 -2.196,0.757 -2.192,0.757 -2.697,2.239 -2.271,2.267 -2.02,1.627 -2.901,2.014 -1.848,2.501 5.56,-3.394 2.46,-1.825 2.183,-0.541 1.32,-0.586 1.975,-0.548 0.547,1.967 -1.957,0.333 -2.625,0.739 -2.417,0.962 -2.655,1.38 -1.551,0.787 -1.331,0.798 -2.251,1.833 5.21,-0.61 2.624,-0.735 1.734,-0.132 1.312,-0.37 1.545,-0.784 1.642,1.801 -2.821,0.3 -1.976,0.762 -2.154,-0.102 -1.958,0.335 -2.4,0.531 -2.625,0.739 -1.728,0.129 -1.622,2.295 2.223,-1.405 1.949,-0.121 2.635,-0.947 -0.052,1.073 -1.323,0.582 -1.745,0.35 -1.546,0.785 -1.55,0.789 -0.912,1.035 1.238,1.138 -0.349,2.79 -0.074,1.504 0.35,1.741 1.146,-1.451 1.623,-2.296 0.955,-1.897 1.793,-1.421 2.44,-1.391 2.184,-0.543 1.754,-0.561 1.527,-0.355 2.184,-0.544 c 0,0 3.839,-8.009 4.907,-12.274 m -2.821,-8.551 -3.864,4.129 5.074,-2.343 z m -19.227,13.951 -0.715,-3.05 -1.697,-0.513 -1.651,-1.588 -0.984,-1.993 -1.424,-1.796 -1.316,4.898 -0.78,2.767 -0.512,1.699 -0.073,1.507 c 0,0 -1.881,3.144 0.109,2.161 l 1.146,-1.452 0.486,-1.053 0.29,-1.499 0.933,-1.464 0.904,-0.821 1.483,0.506 -1.382,1.874 -0.28,1.283 0.857,0.04 1.5,0.287 0.786,1.55 -1.137,1.239 c 0,0 -3.276,5.233 -1.122,5.339 0,0 2.474,-6.566 4.682,-7.538 z m -8.375,-9.679 -1.217,-1.57 -1.207,-1.782 -1.846,-2.031 -0.976,-1.988 -1.214,-1.788 -1.82,-2.458 -1.413,-2.015 -0.589,-1.105 -1.855,-1.814 -0.099,-2.381 0.792,-2.979 0.745,-2.123 1.182,-2.099 0.98,-2.327 -2.186,0.543 -1.508,-0.073 -1.598,1.866 -0.73,1.687 -0.947,1.683 -1.125,1.023 -1.334,0.795 -1.129,1.026 0.131,1.735 3.103,2.735 4.552,8.42 2.956,5.751 1.145,3.077 0.339,1.957 1.208,1.787 1.011,1.341 2.09,1.395 2.95,-7.402 z m -0.068,23.722 c 0,0 1.503,0.073 1.372,-1.656 0,0 0.29,-6.027 2.546,-8.075 l -0.593,-1.103 -0.889,0.601 -0.894,0.607 -1.106,0.593 -1.11,0.59 1.057,0.484 1.054,0.481 -0.372,3.219 -0.409,2.838 -0.588,-0.084 -0.119,-1.947 0.339,-2.571 -2.173,0.327 c 0,0 0.294,2.818 1.885,5.696 m 19.838,53.384 c 0,0 7.227,-2.237 11.991,1.877 0,0 1.956,-0.339 1.136,-1.238 l -1.68,-0.944 -1.258,-0.707 c -4.828,-2.825 -8.148,-1.045 -8.148,-1.045 l 2.01,-1.409 1.766,-0.782 -1.713,-0.297 -0.884,0.388 -1.344,1.012 -1.136,1.241 z m 3.506,7.722 0.873,-0.172 1.739,-0.351 0.863,0.045 1.735,-0.135 0.288,-1.493 -2.153,-0.105 -0.82,-0.902 1.968,-0.553 -0.841,-0.475 -4.312,0.009 0.72,-1.475 1.955,-0.334 3.23,0.158 -0.84,-0.477 -1.703,-0.515 -1.053,-0.479 -1.517,0.142 -1.536,0.573 -1.742,0.344 c 0,0 -0.11,6.685 3.146,6.195 m 4.437,1.941 0.872,-0.174 1.076,0.05 1.292,0.064 2.069,-2.702 -0.847,-0.254 -0.912,1.029 -0.914,1.036 -1.283,-0.277 -1.301,0.152 -1.116,0.806 z m 8.919,-1.508 -0.334,-1.959 -0.607,-0.889 -0.71,1.257 -0.256,0.851 -1.346,1.013 -0.684,0.828 -0.709,1.262 c 0,0 4.143,-0.878 4.646,-2.363 m -1.649,-14.966 -1.299,0.153 -1.29,-0.061 -1.066,-0.27 -0.154,-1.297 1.097,-0.382 c 0.261,-5.379 -4.305,-0.208 -4.305,-0.208 l -1.879,3.143 0.84,0.474 1.466,0.932 2.306,1.406 1.454,1.151 2.23,2.916 0.372,-3.226 -1.261,-0.702 -1.475,-0.719 0.484,-1.054 1.121,-0.811 1.32,-0.582 0.859,0.039 z m -0.858,-4.573 1.307,-0.148 0.472,-0.841 -0.994,-1.774 -1.013,-1.342 -0.811,-1.119 -0.58,-1.324 -2.099,-1.183 1.021,1.128 0.767,1.983 0.172,0.869 -0.125,2.585 1.007,1.558 z m 3.489,-0.69 -0.133,-1.734 -0.744,-2.41 -1.198,-2 -0.573,-1.535 -1.237,-1.141 -1.357,1.227 1.221,1.572 1.025,1.131 1.38,2.653 1.013,1.343 z m 0.974,-2.328 0.391,0.886 1.015,1.341 0.998,1.557 1.362,3.089 1.358,3.086 1.188,2.214 2.406,3.783 0.922,3.284 0.592,1.105 -0.105,2.15 c 0,0 -0.826,3.626 -0.175,3.66 l 0.642,0.031 1.142,-1.24 1.168,-1.885 -0.85,-0.254 -0.378,-1.098 1.087,-0.162 1.056,0.482 0.578,1.324 0.754,-2.125 -1.652,-1.59 -2.106,-0.964 0.468,-0.841 0.066,-1.291 c 0,0 0.508,-6.016 -1.662,-10.219 l -0.572,-1.539 -0.736,-2.622 -1.887,-1.172 -1.26,-0.705 -1.228,-1.356 c 0,0 -2.571,-0.336 -3.206,-0.587 -0.636,-0.244 -1.742,0.348 -1.742,0.348 z m 11.985,29.162 0.525,0.029 -0.082,-0.972 -0.498,-0.509 -0.609,-1.003 -0.713,1.093 z m 2.374,-1.661 0.645,0.033 -0.113,-0.98 -0.623,-0.513 -0.759,-1.009 -0.863,1.089 z m 2.377,-2.309 0.647,0.026 -0.11,-0.975 -0.628,-0.511 -0.758,-1.01 -0.862,1.091 z m -26.438,-29.757 -2.323,-0.98 -0.299,1.711 0.132,1.734 -0.729,1.689 0.583,1.321 0.841,0.476 0.584,1.317 1.527,-0.354 1.094,-0.377 0.743,-1.904 -0.553,-1.97 -0.788,-1.55 z m -3.973,10.803 -1.611,2.083 1.527,-0.361 0.925,-1.248 0.493,-1.27 0.922,-1.247 -1.025,-1.132 -0.482,1.054 z m -0.964,-20.108 -0.133,-1.731 -0.96,-2.417 -0.734,-2.629 -1.179,-2.426 -0.698,1.045 -1.109,0.591 -0.878,0.392 -1.347,1.013 -0.469,0.838 1.246,0.923 0.766,1.98 1.867,1.598 1.173,2.43 2.602,4.226 0.4,-3.862 z m 38.031,-45.824 -0.836,-0.473 -1.081,-0.051 -1.947,0.119 -1.354,1.233 1.311,-0.368 1.294,0.061 1.69,0.727 z m -19.839,30.964 1.969,-0.554 2.841,-0.727 3.043,-0.497 2.634,-0.95 3.905,-0.458 3.272,-0.703 2.614,-0.525 2.602,-0.302 4.089,0.201 -0.049,-3.457 0.136,-2.798 0.249,-5.162 0.417,-4.079 -1.761,-3.75 -1.331,-3.733 -3.152,-1.666 -1.548,0.788 -2.819,0.295 -0.818,-0.903 -1.979,0.766 -1.552,0.788 -1.103,0.592 -2.225,1.404 0.31,-1.924 1.412,-2.522 1.388,-1.876 1.99,-0.98 -1.026,-1.13 -1.677,-0.943 -5.678,-3.08 -0.81,3.415 -0.608,3.637 -0.661,4.712 -0.852,4.272 -1.629,6.821 -1.121,5.341 -2.226,10.248 z m 10.811,-0.556 2.831,-0.51 3.228,0.155 3.68,-0.251 2.594,-0.088 1.043,0.696 1.722,0.087 0.495,-1.274 0.072,-1.506 -4.973,0.192 -3.025,0.067 -2.836,0.725 -2.163,0.11 -1.967,0.552 -1.742,0.346 -2.613,0.524 z m 18.737,-21.523 0.758,2.189 0.495,3.047 -0.422,4.293 -0.566,2.778 -0.544,2.347 0.1,2.379 c 0,0 -0.105,2.152 1.113,-0.813 l 0.829,-3.623 0.831,-3.845 -0.1,-2.378 0.534,-2.13 -0.305,-2.604 -1.003,-1.556 -0.602,-0.894 -1.005,-1.559 -1.095,0.377 z m 26.806,12.084 -1.025,-1.125 -1.502,-0.074 -0.282,1.281 0.351,1.742 0.347,1.745 0.346,1.74 0.378,1.095 0.573,1.539 0.85,0.257 0.999,-2.754 0.951,-1.896 0.764,-2.335 z m -3.065,-7.91 -0.157,3.225 6.279,3.971 0.374,-3.218 z m 4.298,-4.111 -1.967,0.556 -1.305,0.153 -1.966,0.551 7.335,4.451 0.122,-2.579 -0.357,-1.53 -0.571,-1.536 z m -4.284,-9.478 1.032,0.908 0.797,1.334 1.447,1.366 0.352,0.444 1.073,1.349 -1.774,-3.534 -1.197,-2.001 -1.829,-2.246 z m 1.755,8.278 1.311,-0.368 0.895,-0.6 -1.177,-2.434 -2.5,-1.846 -1.658,-1.374 -1.651,-10.435 -1.385,1.874 -0.739,1.909 -0.733,1.69 1.125,3.504 1.146,3.078 0.806,1.114 0.595,1.111 0.326,2.175 0.133,1.726 z m -6.784,10.889 0.939,2.849 0.746,2.41 0.797,1.333 0.506,-1.486 -0.144,-1.516 -0.109,-2.162 0.297,-1.713 -1.467,-0.935 -1.015,-1.344 -1.524,0.363 z m 7.146,17.173 0.298,-1.714 -0.563,-1.748 -0.537,-2.187 -0.554,-1.966 -0.97,-2.206 c 0.762,6.509 2.326,9.821 2.326,9.821 m -2.928,-1.868 -1.907,-0.742 -3.608,-1.25 -3.625,-0.827 -4.045,-1.06 -1.927,-0.306 -1.501,-0.29 -1.483,-0.501 -1.925,-0.308 -1.703,-0.518 -0.342,2.573 6.87,0.767 3.616,1.039 3.625,0.823 2.984,0.791 1.677,0.94 1.5,0.294 1.054,0.48 1.267,0.496 0.3,-1.717 z m -18.433,-15.779 -0.805,3.196 -0.996,2.757 -0.772,2.549 c 0,0 3.19,1.016 3.834,1.051 0.648,0.031 2.776,0.568 3.414,0.813 0.633,0.246 3.399,1.027 3.399,1.027 l 1.907,0.74 2.988,0.578 1.723,0.084 1.014,1.342 1.098,-0.38 1.249,0.927 0.197,-4.089 -1.687,-0.733 -2.14,-4.851 -1.768,-3.533 -0.996,-1.777 -1.194,-1.997 -1.178,-2.428 -1.905,-0.742 -8.591,-5.162 0.141,1.517 0.79,1.547 0.774,1.765 -0.148,3.015 z m -4.354,18.556 1.17,2.644 2.289,1.623 2.246,2.694 2.28,1.841 2.084,1.608 1.205,1.787 c 0,0 1.012,1.342 1.66,1.374 0.642,0.027 4.54,-0.211 4.54,-0.211 l 4.365,-1.083 3.002,0.359 2.18,-0.538 1.532,-0.358 1.301,-0.15 1.293,0.06 0.04,-0.862 -2.091,-1.393 -1.43,-1.579 -1.272,-0.495 -0.93,-3.065 -0.767,-1.979 -0.572,-1.536 -3.194,-0.804 -3.397,-1.244 -2.979,-0.795 -2.971,-1.002 -2.142,-0.321 -3.422,-0.598 -1.697,-0.515 -1.724,-0.083 -2.144,-0.319 -0.103,2.152 -1.527,0.356 -0.315,-2.385 -0.364,2.078 -0.234,1.346 z m 57.188,21.757 1.035,0.914 2.338,0.761 2.428,-1.175 1.986,-0.985 2.259,-2.041 1.537,-0.577 1.347,-1.012 1.976,-0.766 1.105,-0.596 -3.409,-0.81 -2.572,-0.341 -2.82,0.293 -1.939,-0.095 -2.386,0.317 -1.311,0.366 -0.71,1.262 -1.15,1.458 -0.307,1.922 z m 16.927,2.334 -0.731,1.692 -0.091,1.937 1.046,0.697 0.511,-1.701 -0.13,-1.73 0.719,-1.476 0.924,-1.253 -0.391,-0.879 -1.137,1.241 z m 3.994,-6.707 -1.476,-0.72 -1.29,-0.064 0.796,1.333 0.971,2.203 z m 21.756,0.624 1.327,-0.583 3.043,-0.5 0.676,-5.142 -2.159,4.637 -1.234,-1.352 0.944,-1.678 1.162,-1.672 1.435,-2.95 1.448,-3.166 1.449,-3.162 -0.067,-3.024 -1.593,1.646 -0.954,1.896 -1.417,2.518 -1.427,2.737 -1.203,2.53 -2.574,4.187 -1.695,3.802 z M 1.267,5.021 l -1.774,0.992 -1.14,1.24 -1.439,2.95 -1.407,2.305 -1.275,4.036 c -1.444,3.164 -4.736,4.301 -4.736,4.301 l 1.004,1.558 1.002,1.561 0.98,1.987 0.306,2.606 -1.662,3.149 -1.181,2.103 -1.808,1.64 -1.728,0.131 -1.047,-0.696 0.503,-1.488 0.903,-0.821 0.271,-1.065 0.501,-1.483 0.276,-1.282 -0.357,-1.528 -0.788,-1.549 0.062,0.039 -0.065,-0.116 0.003,0.077 -1.473,-0.718 -0.368,-1.313 -1.024,-1.13 -0.699,1.046 -1.098,0.38 -1.053,-0.484 -1.045,-0.695 -0.91,1.033 c 1.324,3.734 -2.458,6.139 -2.458,6.139 l 0.131,1.729 0.811,1.12 0.765,1.98 -0.29,1.493 -1.008,-1.342 c 0,0 -1.048,-0.7 -1.448,-1.364 -0.396,-0.667 -1.033,-0.913 -1.033,-0.913 l -0.376,-1.1 c -4.516,-4.749 -0.456,-8.434 -0.456,-8.434 l -1.442,-1.365 -1.078,-0.052 -1.073,-0.051 -1.501,-0.288 -1.914,-0.527 -5.159,4.067 0.354,1.523 -0.057,1.294 -0.915,1.035 0.103,-2.155 -0.38,-1.096 -1.061,-0.267 -0.063,1.291 -0.066,1.293 -0.255,0.849 1.722,0.085 -1.793,1.423 -1.356,1.225 -1.773,0.995 -1.949,0.124 0.289,-1.499 1.547,-0.785 1.108,-0.596 1.334,-0.796 -0.153,-1.301 -0.153,-1.305 -1.126,1.024 -1.918,-0.524 -1.711,-0.3 -1.229,-1.351 -1.453,-1.152 -1.483,-0.505 -0.796,0.641 c -0.047,0.101 -0.11,0.205 -0.198,0.311 -0.55,0.662 -0.553,1.884 -0.509,2.535 l 0.029,0.109 0.132,1.734 1.186,2.214 -0.265,1.069 -1.444,-1.367 -1.229,-1.356 -0.806,-1.117 -0.77,-1.977 c -2.014,-2.906 2.713,-6.984 2.713,-6.984 l 0.065,-1.296 c -0.114,-2.159 -2.309,-1.405 -2.309,-1.405 l -1.537,0.57 -1.569,1.221 -1.782,1.21 -4.687,3.219 c -2.698,2.248 -5.209,0.61 -5.209,0.61 l -2.067,-1.822 c -2.692,-2.289 -1.062,-4.799 -1.062,-4.799 l 0.505,-1.488 -2.572,-0.342 -1.098,0.38 -1.966,0.551 -1.541,0.576 -2.59,0.086 -3.199,-0.801 -8.204,-4.282 -0.48,1.056 -2.351,-0.546 -2.375,0.105 c 0,0 -2.398,0.528 -3.037,0.281 -0.633,-0.245 -2.611,0.524 -2.611,0.524 0,0 -2.376,0.095 -3.011,-0.151 -0.637,-0.243 -4.338,0.437 -4.338,0.437 l -1.537,0.572 -3.015,-0.145 -1,-1.559 -1.874,-1.387 -1.444,-1.366 -2.501,-1.843 -1.646,-1.591 -2.266,-2.27 -1.618,-2.234 -2.834,-3.804 0.414,-4.077 c -7.837,-2.971 -28.318,1.21 -28.318,1.21 l -3.065,9.776 -1.495,-0.286 -1.475,-0.718 -1.718,-0.083 -1.264,-0.709 1.032,-7.934 -3.257,0.489 -1.945,0.12 -1.756,0.562 -2.45,1.608 c 3.29,7.711 2.793,13.511 2.793,13.511 l 0.275,3.249 4.08,0.416 4.816,-1.496 2.21,3.345 1.927,0.311 1.895,0.955 c 3.671,-0.04 5.534,1.559 5.534,1.559 l 1.821,2.463 2.026,2.686 c 1.785,7.639 2.172,13.048 2.172,13.048 l 0.573,1.54 2.251,2.483 3.911,-4.987 1.877,1.381 -0.741,1.909 -2.31,3.125 -0.507,1.483 c 0.556,1.972 -0.388,3.648 -0.388,3.648 l -2.947,2.879 c -1.528,0.355 -4.303,-0.21 -4.303,-0.21 l -3.158,2.863 -2.507,2.686 -2.264,2.262 -1.786,1.209 -3.149,2.651 -3.621,3.49 -2.698,2.245 -4.46,3.016 -2.246,1.833 -5.65,5.337 -0.603,-0.897 2.503,-2.68 -2.219,1.183 -8.333,2.834 c -2.337,-0.76 -0.099,-2.378 -0.099,-2.378 l 9.162,-2.142 4.697,-3.44 c 3.968,-1.753 2.473,-2.036 2.473,-2.036 -6.408,3.14 -11.429,4.405 -11.429,4.405 -1.087,0.164 -1.016,-1.344 -1.016,-1.344 8.939,-1.937 17.162,-6.931 17.162,-6.931 2.635,-0.949 7.603,-5.455 7.603,-5.455 6.95,-5.488 8.829,-8.632 8.829,-8.632 1.781,-1.21 1.201,-2.53 1.201,-2.53 -2.681,-2.506 -1.278,-4.81 -1.278,-4.81 l 0.313,-1.924 -6.404,-14.764 -1.463,-0.933 -5.39,-0.047 c -0.291,1.498 2.701,2.071 2.701,2.071 l 0.091,2.594 c -1.088,0.163 -0.144,3.012 -0.144,3.012 l -0.429,4.295 1.915,5.058 c 1.071,4.574 -6.893,4.193 -6.893,4.193 l -2.159,0.109 c -4.111,0.233 -6.986,-2.712 -6.986,-2.712 -4.001,-2.136 -3.79,-6.44 -3.79,-6.44 -1.371,-2.872 2.046,-6.588 2.046,-6.588 l -6.848,-5.51 c -6.079,-3.742 -10.719,-14.758 -10.719,-14.758 l -9.732,-26.138 -0.583,-1.326 1.741,-0.347 1.325,-0.585 1.722,0.083 1.15,-1.452 -1.547,-3.74 -0.131,-1.736 0.913,-1.035 c 0,0 -1.401,-2.221 0.241,-4.945 l -2.027,-2.688 -3.298,-3.181 -3.291,-7.709 -5.462,-11.914 -1.047,-0.696 -3.514,-3.19 c 0,0 -1.043,-0.699 0.537,-2.135 l 1.831,-2.066 1.354,-1.233 1.145,-1.453 1.137,-1.24 0.521,-1.698 2.017,-1.626 -5.381,-0.264 -1.557,1.005 -2.647,1.162 c 0,0 -2.861,1.16 -4.695,-1.088 l 0.473,-0.838 2.358,0.331 1.559,-1.005 2.862,-1.157 1.751,-0.558 15.28,0.741 1.55,-0.788 1.087,-0.167 1.097,-0.377 -0.39,-0.878 -0.128,-1.738 1.974,-0.763 1.554,-1.006 1.329,-0.578 1.085,-0.163 1.054,0.478 -1.374,1.662 1.486,0.504 1.719,0.081 1.498,0.29 0.865,0.041 1.944,-0.119 c 0,0 -0.265,1.063 -1.129,1.023 -0.861,-0.045 -3.065,0.932 -3.065,0.932 l -1.128,1.021 -2.175,0.324 -2.376,0.1 -1.95,0.125 -0.92,1.246 -1.343,1.013 -6.035,-0.076 -0.046,0.86 -1.773,0.992 -1.396,2.089 -0.64,4.287 -0.133,2.795 2.219,3.129 2.784,4.881 2.619,3.792 1.617,2.242 0.807,1.113 1.427,1.796 1.72,0.084 0.98,1.989 0.585,1.323 0.811,1.119 2.14,0.319 0.993,1.773 0.777,1.762 0.151,1.301 -0.092,1.938 1.02,1.128 9.811,-10.955 -1.42,-1.795 -1.008,-1.555 -1.863,-1.603 -0.725,-2.841 -1.378,-7.183 -1.266,-5.027 -1.381,-2.655 -0.579,-1.32 -1.018,-1.344 -1.011,-1.344 c 0,0 -4.157,-3.225 2.867,-5.689 l 2.632,-0.952 1.969,-0.548 2.205,-0.972 1.722,0.085 1.504,0.071 0.84,0.473 1.657,-0.037 1.736,1.281 1.713,0.298 0.161,1.091 -0.912,1.029 -1.747,0.346 0.947,-1.681 -2.388,0.318 -1.929,-0.304 -1.053,-0.488 -1.462,-0.936 -1.971,0.552 -2.625,0.738 -2.183,0.542 -1.308,0.366 -1.571,1.216 0.519,2.615 1.614,2.239 0.988,1.989 1.723,4.395 1.137,3.294 1.133,3.291 0.5,3.041 0.725,2.84 0.992,1.774 1.014,1.343 1.877,1.386 2.701,-2.454 c 0,0 0.283,-1.285 0.927,-1.254 0.649,0.033 1.356,-1.222 1.356,-1.222 l -1.619,-2.242 -5.912,-11.501 -2.048,-2.256 -0.962,-2.418 -0.981,-1.992 3.546,-1.987 1.754,-0.557 1.978,-0.77 2.581,0.123 -1.75,0.566 -1.775,0.989 -2.86,1.159 -1.786,1.207 2.204,3.557 1.005,1.56 1.432,1.579 1.571,3.097 0.993,1.771 1.196,1.999 1.2,2.001 1.175,2.429 c 0,0 3.222,0.374 3.132,6.624 l 1.409,2.012 1.014,1.342 -0.996,2.759 -1.488,4.024 -1.223,2.962 -2.146,4.206 1.516,-0.141 0.811,1.118 -7.565,13.656 1.932,0.094 1.098,-0.379 1.127,-1.024 1.164,-1.669 1.536,-0.573 1.948,-0.118 0.83,0.683 1.29,0.064 0.595,-3.419 0.284,-5.816 0.525,-1.916 -0.076,-2.804 -0.342,-1.956 -0.12,-1.949 -0.743,-2.41 1.536,-0.574 0.497,3.045 0.307,2.608 -0.251,5.162 -0.374,2.048 -0.212,1.156 -0.741,6.437 1.303,-4.682 0.935,-5.992 0.12,-2.367 0.09,-1.94 -0.055,-3.236 0.563,-2.776 0.595,1.103 -0.364,3.004 0.093,2.594 0.983,1.987 0.965,-6.64 0.222,-4.519 0.814,-3.413 0.452,-4.938 0.612,-3.64 -2.076,-1.607 0.134,-2.799 2.313,-3.34 3.26,-0.488 13.354,-8.411 -0.785,-1.548 -1.076,-0.055 0.132,1.731 -2.144,-0.319 -1.282,-0.276 -1.236,-1.14 -1.003,-1.56 -1.466,-0.93 1.128,-1.025 1.967,-0.552 -0.143,-1.516 1.972,-0.55 0.857,0.039 1.745,-0.345 -0.817,-0.901 1.087,-0.164 1.501,0.072 1.313,-0.369 -0.139,-1.517 4.948,0.238 0.177,0.876 -1.551,0.786 -0.698,1.048 1.055,0.477 1.251,0.924 1.712,0.299 1.905,0.744 -0.085,1.718 1.079,0.053 1.323,-0.58 1.264,0.49 -2.744,3.317 3.063,-0.927 1.086,-0.164 1.794,-1.423 -1.924,-0.313 -0.382,-1.096 0.281,-1.279 0.043,-0.858 1.31,-0.369 7.094,0.557 1.083,-0.159 1.528,-0.358 1.518,-0.144 0.99,1.776 3.652,0.394 1.958,-0.335 1.964,-0.552 1.435,1.578 3.228,0.153 -0.08,1.724 2.161,-0.109 1.127,-1.024 2.233,-1.618 1.764,-0.778 1.274,0.492 0.386,0.88 -1.376,1.66 1.939,0.095 1.332,-0.796 2.002,-1.2 1.903,0.741 2.409,-0.748 1.541,-0.569 0.859,0.043 1.508,0.072 3.45,-0.049 -0.748,2.119 0.603,0.895 1.73,-0.134 0.893,-0.601 1.917,0.525 -0.469,0.837 3.227,0.156 1.685,0.732 -1.615,2.292 2.808,-0.078 -0.538,2.132 -0.727,1.688 -0.764,2.335 0.121,1.951 0.751,2.41 0.56,1.748 1.185,2.218 0.533,2.399 0.552,1.968 1.657,1.369 0.592,1.112 0.511,2.831 1.094,4.151 1.117,-0.809 0.688,-0.829 0.901,-0.818 1.161,-1.673 1.213,-2.744 -0.563,-1.754 -0.777,-1.759 -1.003,-1.562 -1.628,-2.017 -1.003,-1.562 -1.219,-1.569 -1.681,-0.945 -0.809,-1.117 -1.013,-1.342 -1.472,-0.723 2.063,-7.015 1.242,1.139 0.366,1.311 1.025,1.129 1.485,0.502 0.379,1.1 1.031,0.909 1.026,1.13 0.787,1.547 0.996,1.771 2.219,3.131 2.238,2.698 2.018,2.902 c 3.106,2.739 0.589,5.639 0.589,5.639 l -2.799,4.391 0.57,1.538 1.249,0.925 2.143,0.323 1.939,0.09 1.062,0.27 0.831,0.684 3.658,-8.664 -0.348,-1.746 -0.347,-1.739 -0.164,-1.09 0.417,-4.078 0.267,-1.063 -1.381,-2.659 -2.233,-2.911 -3.081,-3.167 -2.436,-3.142 0.511,-1.698 -2.532,-1.203 4.591,-5.602 -4.314,0.008 0.377,1.097 -2.64,0.948 -1.952,0.338 -1.72,-0.084 -2.349,-0.544 -1.2,-1.999 1.519,-0.145 1.939,0.093 1.529,-0.352 0.858,0.039 -1.443,-1.364 -0.843,-0.475 -0.14,-1.513 2.142,0.318 0.808,1.115 1.741,-0.347 2.131,0.539 2.8,0.133 1.311,-0.366 1.334,-0.796 0.687,-0.832 2.647,-1.165 2.344,0.545 1.702,0.514 1.097,-0.379 1.087,-0.16 c 4.971,-0.192 5.519,1.776 5.519,1.776 l -0.684,0.828 2.323,0.98 1.699,0.512 2.166,-0.112 1.485,0.505 1.239,1.141 -0.043,0.859 -1.957,0.337 -1.27,-0.493 -1.27,-0.494 -1.689,-0.731 -1.69,-0.728 -2.542,-0.987 -1.095,0.378 -1.191,2.318 -0.881,0.389 -0.517,1.698 c -1.846,2.497 1.251,9.766 1.251,9.766 l 0.293,2.822 1.416,2.01 1.163,2.644 1.23,1.353 4.667,14.898 0.135,1.732 1.465,0.935 1.453,1.148 0.797,1.331 1.403,2.225 c 2.886,2.731 2.796,4.667 2.796,4.667 l 0.786,1.549 0.189,4.968 c 0.641,4.561 1.749,3.968 1.749,3.968 5.381,0.261 5.784,5.244 5.784,5.244 l 0.798,1.331 1.662,1.378 1.57,-1.222 0.892,-0.601 1.124,-1.023 1.315,-0.367 2.12,0.749 1.504,0.075 0.382,1.094 1.021,1.129 0.841,0.472 0.357,1.526 C 5.725,2.004 1.267,5.021 1.267,5.021"
       style="fill:#231f20;fill-opacity:1;fill-rule:nonzero;stroke:none"
       transform="matrix(1.3333333,0,0,-1.3333333,983.63667,407.3724)"
       clip-path="url(#clipPath80)" />
    <path
       id="path81"
       d="m 0,0 -0.32,-2.389 2.257,-2.048 0.789,1.551 -0.932,1.46 z"
       style="fill:#231f20;fill-opacity:1;fill-rule:nonzero;stroke:none"
       transform="matrix(1.3333333,0,0,-1.3333333,729.57027,405.32813)"
       clip-path="url(#clipPath82)" />
    <path
       id="path83"
       d="m 0,0 -0.778,-0.244 1.062,-1.427 0.83,-0.806 0.554,0.873 -0.041,0.844 0.716,1.513 -0.81,0.385 z"
       style="fill:#231f20;fill-opacity:1;fill-rule:nonzero;stroke:none"
       transform="matrix(1.3333333,0,0,-1.3333333,694.6432,486.77147)"
       clip-path="url(#clipPath84)" />
    <path
       id="path85"
       d="M 0,0 -0.833,-0.269 0.296,-1.805 1.182,-2.674 1.768,-1.735 1.724,-0.831 2.486,0.798 1.625,1.213 Z"
       style="fill:#231f20;fill-opacity:1;fill-rule:nonzero;stroke:none"
       transform="matrix(1.3333333,0,0,-1.3333333,732.3412,498.4596)"
       clip-path="url(#clipPath86)" />
    <path
       id="path87"
       d="m 0,0 -1.151,-1.437 c 0,0 -0.789,-1.007 -1.006,-1.007 -0.216,0 -1.796,-0.573 -1.796,-0.573 l -1.221,-0.216 -5.965,1.221 -2.298,-0.79 -1.438,1.006 -5.748,0.144 -0.05,0.004 c -27.268,-24.403 -63.269,-39.25 -102.743,-39.25 -85.124,0 -154.133,69.009 -154.133,154.133 0,7.302 0.52,14.478 1.501,21.509 0.253,14.142 3.807,47.846 29.267,80.847 0,0 19.545,31.042 62.854,45.222 0,0 18.917,8.247 49.904,6.184 3.504,0.237 7.039,0.371 10.607,0.371 85.124,0 154.134,-69.009 154.134,-154.133 0,-41.525 -16.428,-79.211 -43.132,-106.928 0.188,-0.045 0.315,-0.09 0.341,-0.127 0.143,-0.214 0.143,-1.941 0.143,-1.941 l 3.234,0.146 1.869,0.143 1.364,0.359 2.588,-0.359 c 0,0 4.671,0.79 2.875,-4.528 m -123.416,282.104 c -93.263,0 -168.868,-75.61 -168.868,-168.869 0,-93.259 75.605,-168.869 168.868,-168.869 93.262,0 168.869,75.61 168.869,168.869 0,93.259 -75.607,168.869 -168.869,168.869"
       style="fill:#28b34b;fill-opacity:1;fill-rule:nonzero;stroke:none"
       transform="matrix(1.3333333,0,0,-1.3333333,972.7012,504.3008)"
       clip-path="url(#clipPath88)" />
    <path
       id="path89"
       d="m 0,0 h 14.523 c 1.571,0 4.613,0.546 9.125,1.65 2.284,0.496 4.145,1.764 5.592,3.802 1.445,2.033 2.167,4.373 2.167,7.015 0,3.911 -1.143,6.911 -3.423,9.004 -2.282,2.093 -6.566,3.137 -12.853,3.137 L 0,24.608 Z M -34.604,-72.009 V 49.053 h 57.418 c 10.646,0 18.784,-0.993 24.412,-2.973 5.627,-1.98 10.164,-5.657 13.613,-11.024 3.445,-5.367 5.17,-11.907 5.17,-19.614 0,-6.717 -1.319,-12.509 -3.956,-17.385 -2.639,-4.871 -6.266,-8.822 -10.883,-11.849 -2.941,-1.928 -6.973,-3.524 -12.097,-4.789 4.102,-1.49 7.094,-2.975 8.967,-4.464 1.268,-0.993 3.101,-3.112 5.511,-6.365 2.406,-3.253 4.014,-5.757 4.826,-7.521 L 75.059,-72.009 H 36.133 l -18.416,36.995 c -2.332,4.789 -4.411,7.9 -6.235,9.332 -2.485,1.87 -5.297,2.807 -8.441,2.807 H 0 v -49.134 z"
       style="fill:#ed1c24;fill-opacity:1;fill-rule:nonzero;stroke:none"
       transform="matrix(1.3333333,0,0,-1.3333333,140.23893,689.23373)"
       clip-path="url(#clipPath90)" />
    <path
       id="path91"
       d="M 0,0 H 32.661 L 49.319,-58.385 64.791,0 h 30.5 L 63.248,-93.708 c -3.65,-10.692 -7.374,-17.907 -11.174,-21.653 -5.372,-5.288 -13.558,-7.934 -24.555,-7.934 -4.459,0 -11.353,0.661 -20.679,1.981 L 4.41,-97.86 c 4.456,-1.541 9.423,-2.313 14.891,-2.313 3.649,0 6.601,0.912 8.856,2.729 2.252,1.823 4.164,5.074 5.736,9.757 z"
       style="fill:#ed1c24;fill-opacity:1;fill-rule:nonzero;stroke:none"
       transform="matrix(1.3333333,0,0,-1.3333333,240.41987,668.31253)"
       clip-path="url(#clipPath92)" />
    <path
       id="path93"
       d="M 0,0 V -33.362 H 17.034 V -57.976 H 0 v -31.066 c 0,-3.739 0.328,-6.21 0.987,-7.42 1.015,-1.866 2.788,-2.801 5.324,-2.801 2.28,0 5.475,0.714 9.581,2.142 l 2.282,-23.2 c -7.656,-1.82 -14.806,-2.724 -21.447,-2.724 -7.704,0 -13.384,1.071 -17.033,3.216 -3.652,2.144 -6.351,5.401 -8.099,9.772 -1.749,4.37 -2.624,11.449 -2.624,21.238 v 30.843 h -11.408 v 24.614 h 11.408 v 16.101 z"
       style="fill:#ed1c24;fill-opacity:1;fill-rule:nonzero;stroke:none"
       transform="matrix(1.3333333,0,0,-1.3333333,433.90173,623.82947)"
       clip-path="url(#clipPath94)" />
    <path
       id="path95"
       d="m 0,0 h 30.954 v -44.593 c 4.209,4.734 8.389,8.119 12.546,10.156 4.158,2.037 9.078,3.054 14.755,3.054 8.415,0 15.045,-2.779 19.887,-8.338 4.84,-5.562 7.263,-14.095 7.263,-25.603 v -55.739 H 54.3 v 48.225 c 0,5.504 -0.938,9.401 -2.813,11.686 -1.877,2.283 -4.513,3.426 -7.91,3.426 -3.752,0 -6.793,-1.541 -9.124,-4.623 -2.333,-3.082 -3.499,-8.615 -3.499,-16.6 v -42.114 H 0 Z"
       style="fill:#ed1c24;fill-opacity:1;fill-rule:nonzero;stroke:none"
       transform="matrix(1.3333333,0,0,-1.3333333,472.5528,623.82947)"
       clip-path="url(#clipPath96)" />
    <path
       id="path97"
       d="m 0,0 h -28.899 v 14.202 c -4.31,-5.838 -8.657,-9.993 -13.042,-12.47 -4.387,-2.475 -9.772,-3.715 -16.161,-3.715 -8.518,0 -15.198,2.766 -20.038,8.3 -4.843,5.531 -7.262,14.049 -7.262,25.555 V 87.7 h 31.101 V 39.472 c 0,-5.506 0.939,-9.413 2.816,-11.727 1.875,-2.313 4.511,-3.469 7.91,-3.469 3.699,0 6.728,1.543 9.087,4.625 2.358,3.082 3.537,8.618 3.537,16.598 V 87.7 L 0,87.7 Z"
       style="fill:#ed1c24;fill-opacity:1;fill-rule:nonzero;stroke:none"
       transform="matrix(1.3333333,0,0,-1.3333333,716.808,785.24613)"
       clip-path="url(#clipPath98)" />
    <path
       id="path99"
       d="m 0,0 h 17.57 c 5.931,0 10.112,1.146 12.546,3.428 2.435,2.285 3.652,5.356 3.652,9.21 0,3.577 -1.208,6.452 -3.614,8.629 -2.409,2.173 -6.628,3.259 -12.664,3.259 l -17.49,0 z m 0,47.57 h 14.98 c 5.375,0 9.116,1.003 11.22,3.015 2.105,2.008 3.154,4.91 3.154,8.708 0,3.525 -1.049,6.278 -3.154,8.261 -2.104,1.979 -5.768,2.973 -10.99,2.973 H 0 Z m -34.753,47.483 h 64.488 c 10.748,0 18.999,-2.889 24.754,-8.671 5.757,-5.781 8.631,-12.938 8.631,-21.472 0,-7.157 -2.054,-13.292 -6.158,-18.416 -2.736,-3.413 -6.743,-6.107 -12.016,-8.092 8.012,-2.093 13.903,-5.686 17.681,-10.777 3.777,-5.09 5.668,-11.492 5.668,-19.2 0,-6.277 -1.346,-11.92 -4.033,-16.929 -2.689,-5.01 -6.364,-8.976 -11.028,-11.892 -2.887,-1.816 -7.249,-3.139 -13.077,-3.964 -7.757,-1.101 -12.906,-1.649 -15.441,-1.649 h -59.469 z"
       style="fill:#ed1c24;fill-opacity:1;fill-rule:nonzero;stroke:none"
       transform="matrix(1.3333333,0,0,-1.3333333,809.41147,750.56707)"
       clip-path="url(#clipPath100)" />
    <path
       id="path101"
       d="m 0,0 c -4.259,-1.65 -8.694,-3.11 -13.308,-4.375 -6.286,-1.815 -10.266,-3.607 -11.939,-5.371 -1.724,-1.813 -2.586,-3.88 -2.586,-6.19 0,-2.646 0.85,-4.806 2.548,-6.486 1.698,-1.679 4.196,-2.515 7.489,-2.515 3.447,0 6.655,0.906 9.622,2.726 2.965,1.817 5.07,4.03 6.312,6.644 C -0.62,-12.952 0,-9.55 0,-5.365 Z m -26.845,17.671 -29.582,3.389 c 1.113,5.615 2.724,10.033 4.827,13.253 2.105,3.223 5.134,6.015 9.091,8.382 2.838,1.707 6.739,3.027 11.71,3.967 4.967,0.934 10.342,1.4 16.124,1.4 9.277,0 16.729,-0.562 22.356,-1.689 5.631,-1.129 10.317,-3.486 14.069,-7.062 2.635,-2.479 4.719,-5.986 6.238,-10.53 1.522,-4.542 2.28,-8.877 2.28,-13.008 v -38.73 c 0,-4.129 0.242,-7.365 0.723,-9.702 0.482,-2.34 1.532,-5.328 3.155,-8.959 H 5.095 c -1.166,2.255 -1.924,3.98 -2.279,5.16 -0.356,1.182 -0.712,3.04 -1.063,5.573 -4.058,-4.241 -8.09,-7.267 -12.095,-9.084 -5.475,-2.422 -11.84,-3.632 -19.089,-3.632 -9.631,0 -16.947,2.422 -21.939,7.266 -4.994,4.845 -7.491,10.819 -7.491,17.918 0,6.663 1.798,12.14 5.399,16.436 3.599,4.293 10.241,7.488 19.926,9.581 11.608,2.532 19.137,4.303 22.587,5.325 3.448,1.019 7.095,2.353 10.949,4.004 0,4.131 -0.786,7.021 -2.356,8.674 -1.573,1.652 -4.337,2.477 -8.291,2.477 -5.067,0 -8.872,-0.884 -11.405,-2.643 -1.979,-1.376 -3.575,-3.968 -4.793,-7.766"
       style="fill:#ed1c24;fill-opacity:1;fill-rule:nonzero;stroke:none"
       transform="matrix(1.3333333,0,0,-1.3333333,991.97653,729.75587)"
       clip-path="url(#clipPath102)" />
    <path
       id="path103"
       d="M 0,0 H 74.91 V -19.655 L 34.144,-64.746 H 77.417 V -87.7 H -3.041 v 21.8 l 38.716,42.942 -35.675,0 z"
       style="fill:#ed1c24;fill-opacity:1;fill-rule:nonzero;stroke:none"
       transform="matrix(1.3333333,0,0,-1.3333333,1052.4135,668.31253)"
       clip-path="url(#clipPath104)" />
    <path
       id="path105"
       d="m 0,0 c -4.261,-1.65 -8.696,-3.11 -13.31,-4.375 -6.288,-1.815 -10.267,-3.607 -11.94,-5.371 -1.724,-1.813 -2.585,-3.88 -2.585,-6.19 0,-2.646 0.848,-4.806 2.547,-6.486 1.699,-1.679 4.196,-2.515 7.493,-2.515 3.447,0 6.652,0.906 9.618,2.726 2.967,1.817 5.07,4.03 6.313,6.644 C -0.622,-12.952 0,-9.55 0,-5.365 Z M -26.848,17.671 -56.43,21.06 c 1.114,5.615 2.724,10.033 4.828,13.253 2.105,3.223 5.133,6.015 9.09,8.382 2.837,1.707 6.741,3.027 11.711,3.967 4.966,0.934 10.342,1.4 16.122,1.4 9.279,0 16.731,-0.562 22.357,-1.689 5.631,-1.129 10.321,-3.486 14.073,-7.062 2.635,-2.479 4.714,-5.986 6.233,-10.53 1.523,-4.542 2.282,-8.877 2.282,-13.008 v -38.73 c 0,-4.129 0.241,-7.365 0.723,-9.702 0.481,-2.34 1.532,-5.328 3.157,-8.959 H 5.093 c -1.163,2.255 -1.924,3.98 -2.28,5.16 -0.356,1.182 -0.71,3.04 -1.064,5.573 -4.057,-4.241 -8.089,-7.267 -12.09,-9.084 -5.479,-2.422 -11.84,-3.632 -19.089,-3.632 -9.634,0 -16.951,2.422 -21.943,7.266 -4.994,4.845 -7.488,10.819 -7.488,17.918 0,6.663 1.799,12.14 5.397,16.436 3.599,4.293 10.241,7.488 19.926,9.581 11.606,2.532 19.136,4.303 22.587,5.325 3.447,1.019 7.096,2.353 10.951,4.004 0,4.131 -0.789,7.021 -2.358,8.674 -1.573,1.652 -4.334,2.477 -8.288,2.477 -5.071,0 -8.876,-0.884 -11.409,-2.643 -1.978,-1.376 -3.576,-3.968 -4.793,-7.766"
       style="fill:#ed1c24;fill-opacity:1;fill-rule:nonzero;stroke:none"
       transform="matrix(1.3333333,0,0,-1.3333333,1245.9857,729.75587)"
       clip-path="url(#clipPath106)" />
    <path
       id="path107"
       d="m 0,0 c -4.259,-1.65 -8.697,-3.11 -13.309,-4.375 -6.288,-1.815 -10.266,-3.607 -11.943,-5.371 -1.724,-1.813 -2.581,-3.88 -2.581,-6.19 0,-2.646 0.849,-4.806 2.547,-6.486 1.695,-1.679 4.192,-2.515 7.489,-2.515 3.447,0 6.656,0.906 9.621,2.726 2.966,1.817 5.068,4.03 6.314,6.644 C -0.621,-12.952 0,-9.55 0,-5.365 Z m -26.846,17.671 -29.585,3.389 c 1.117,5.615 2.726,10.033 4.83,13.253 2.102,3.223 5.134,6.015 9.087,8.382 2.841,1.707 6.744,3.027 11.714,3.967 4.97,0.934 10.342,1.4 16.123,1.4 9.276,0 16.731,-0.562 22.357,-1.689 5.627,-1.129 10.318,-3.486 14.069,-7.062 2.635,-2.479 4.715,-5.986 6.235,-10.53 1.525,-4.542 2.283,-8.877 2.283,-13.008 v -38.73 c 0,-4.129 0.239,-7.365 0.724,-9.702 0.481,-2.34 1.531,-5.328 3.155,-8.959 H 5.094 c -1.166,2.255 -1.927,3.98 -2.281,5.16 -0.353,1.182 -0.709,3.04 -1.064,5.573 -4.06,-4.241 -8.087,-7.267 -12.092,-9.084 -5.476,-2.422 -11.839,-3.632 -19.089,-3.632 -9.634,0 -16.947,2.422 -21.942,7.266 -4.991,4.845 -7.49,10.819 -7.49,17.918 0,6.663 1.8,12.14 5.399,16.436 3.601,4.293 10.241,7.488 19.925,9.581 11.609,2.532 19.14,4.303 22.587,5.325 3.447,1.019 7.1,2.353 10.953,4.004 0,4.131 -0.787,7.021 -2.356,8.674 -1.573,1.652 -4.337,2.477 -8.292,2.477 -5.071,0 -8.873,-0.884 -11.408,-2.643 -1.978,-1.376 -3.573,-3.968 -4.79,-7.766"
       style="fill:#ed1c24;fill-opacity:1;fill-rule:nonzero;stroke:none"
       transform="matrix(1.3333333,0,0,-1.3333333,1378.6699,729.75587)"
       clip-path="url(#clipPath108)" />
    <path
       id="path109"
       d="m 0,0 h 28.972 v -14.37 c 2.789,6.221 5.668,10.502 8.633,12.842 2.966,2.339 6.628,3.507 10.987,3.507 4.564,0 9.559,-1.54 14.981,-4.623 l -9.58,-23.95 c -3.649,1.651 -6.539,2.48 -8.668,2.48 -4.057,0 -7.201,-1.817 -9.43,-5.452 -3.196,-5.118 -4.794,-14.699 -4.794,-28.738 V -87.7 L 0,-87.7 Z"
       style="fill:#ed1c24;fill-opacity:1;fill-rule:nonzero;stroke:none"
       transform="matrix(1.3333333,0,0,-1.3333333,1437.4309,668.31253)"
       clip-path="url(#clipPath110)" />
    <path
       id="path111"
       d="M 970.363,126.977 H 241.86 v 55.92 h 728.503 z"
       style="fill:#28b34b;fill-opacity:1;fill-rule:nonzero;stroke:none"
       transform="matrix(1.3333333,0,0,-1.3333333,0,1058.6667)"
       clip-path="url(#clipPath112)" />
    <path
       id="path113"
       d="m 275.848,175.453 h 11.877 v -40.372 h -11.877 z"
       style="fill:#ffffff;fill-opacity:1;fill-rule:nonzero;stroke:none"
       transform="matrix(1.3333333,0,0,-1.3333333,0,1058.6667)"
       clip-path="url(#clipPath114)" />
    <path
       id="path115"
       d="m 0,0 h 9.915 v -4.768 c 1.482,1.948 2.983,3.339 4.5,4.172 1.517,0.837 3.364,1.255 5.545,1.255 2.949,0 5.255,-0.923 6.921,-2.766 1.665,-1.845 2.499,-4.698 2.499,-8.556 V -29.25 H 18.678 v 16.083 c 0,1.838 -0.323,3.137 -0.968,3.898 -0.645,0.762 -1.551,1.144 -2.72,1.144 -1.291,0 -2.337,-0.515 -3.138,-1.541 -0.803,-1.031 -1.205,-2.875 -1.205,-5.538 V -29.25 H 0 Z"
       style="fill:#ffffff;fill-opacity:1;fill-rule:nonzero;stroke:none"
       transform="matrix(1.3333333,0,0,-1.3333333,394.0312,839.55853)"
       clip-path="url(#clipPath116)" />
    <path
       id="path117"
       d="m 0,0 c 0,2.298 -0.462,4.011 -1.386,5.139 -0.926,1.132 -2.093,1.694 -3.506,1.694 -1.239,0 -2.277,-0.542 -3.113,-1.626 -0.838,-1.083 -1.257,-2.899 -1.257,-5.453 0,-2.386 0.431,-4.136 1.295,-5.246 0.863,-1.11 1.931,-1.667 3.205,-1.667 1.361,0 2.494,0.563 3.401,1.68 C -0.454,-4.357 0,-2.531 0,0 M 10.674,25.667 V -14.705 H 0.707 v 4.323 c -1.397,-1.835 -2.669,-3.07 -3.82,-3.715 -1.534,-0.846 -3.244,-1.268 -5.129,-1.268 -3.784,0 -6.675,1.514 -8.671,4.542 -1.998,3.033 -2.997,6.714 -2.997,11.046 0,4.845 1.104,8.555 3.31,11.128 2.206,2.567 5.011,3.853 8.411,3.853 1.658,0 3.16,-0.296 4.513,-0.881 1.351,-0.587 2.552,-1.468 3.598,-2.643 v 13.987 z"
       style="fill:#ffffff;fill-opacity:1;fill-rule:nonzero;stroke:none"
       transform="matrix(1.3333333,0,0,-1.3333333,466.44787,858.95187)"
       clip-path="url(#clipPath118)" />
    <path
       id="path119"
       d="m 367.39,164.331 h 10.65 v -29.25 h -10.65 z m 0,11.122 h 10.65 v -7.629 h -10.65 z"
       style="fill:#ffffff;fill-opacity:1;fill-rule:nonzero;stroke:none"
       transform="matrix(1.3333333,0,0,-1.3333333,0,1058.6667)"
       clip-path="url(#clipPath120)" />
    <path
       id="path121"
       d="m 0,0 c -1.464,-0.553 -2.992,-1.039 -4.578,-1.463 -2.164,-0.605 -3.533,-1.201 -4.108,-1.788 -0.593,-0.605 -0.889,-1.295 -0.889,-2.065 0,-0.882 0.291,-1.603 0.876,-2.163 0.585,-0.561 1.444,-0.84 2.577,-0.84 1.185,0 2.289,0.303 3.311,0.91 1.019,0.605 1.743,1.345 2.17,2.217 C -0.215,-4.32 0,-3.189 0,-1.792 Z m -9.235,5.891 -10.178,1.131 c 0.385,1.872 0.937,3.346 1.661,4.418 0.725,1.075 1.767,2.009 3.128,2.797 0.977,0.568 2.319,1.008 4.029,1.323 1.709,0.311 3.557,0.466 5.545,0.466 3.193,0 5.757,-0.189 7.692,-0.564 1.937,-0.379 3.55,-1.161 4.84,-2.355 0.908,-0.826 1.623,-1.998 2.147,-3.51 0.523,-1.515 0.785,-2.961 0.785,-4.338 V -7.658 c 0,-1.377 0.08,-2.457 0.247,-3.236 0.166,-0.78 0.527,-1.777 1.086,-2.988 H 1.752 c -0.402,0.751 -0.662,1.325 -0.784,1.723 -0.121,0.392 -0.244,1.013 -0.366,1.856 -1.396,-1.413 -2.783,-2.42 -4.16,-3.029 -1.882,-0.807 -4.073,-1.211 -6.567,-1.211 -3.314,0 -5.829,0.81 -7.548,2.425 -1.717,1.613 -2.577,3.608 -2.577,5.974 0,2.221 0.621,4.05 1.858,5.479 1.238,1.433 3.522,2.498 6.854,3.196 3.993,0.845 6.583,1.437 7.771,1.779 1.185,0.336 2.441,0.783 3.767,1.336 0,1.376 -0.271,2.339 -0.812,2.888 -0.54,0.549 -1.49,0.828 -2.851,0.828 -1.743,0 -3.053,-0.292 -3.925,-0.883 C -8.267,8.022 -8.817,7.16 -9.235,5.891"
       style="fill:#ffffff;fill-opacity:1;fill-rule:nonzero;stroke:none"
       transform="matrix(1.3333333,0,0,-1.3333333,538.37693,860.04813)"
       clip-path="url(#clipPath122)" />
    <path
       id="path123"
       d="m 0,0 h 9.916 v -4.768 c 1.481,1.948 2.982,3.339 4.5,4.172 1.518,0.837 3.367,1.255 5.546,1.255 2.948,0 5.253,-0.923 6.921,-2.766 1.665,-1.845 2.498,-4.698 2.498,-8.556 V -29.25 H 18.68 v 16.083 c 0,1.838 -0.323,3.137 -0.967,3.898 -0.646,0.762 -1.553,1.144 -2.723,1.144 -1.29,0 -2.337,-0.515 -3.139,-1.541 -0.801,-1.031 -1.204,-2.875 -1.204,-5.538 V -29.25 H 0 Z"
       style="fill:#ffffff;fill-opacity:1;fill-rule:nonzero;stroke:none"
       transform="matrix(1.3333333,0,0,-1.3333333,560.77213,839.55853)"
       clip-path="url(#clipPath124)" />
    <path
       id="path125"
       d="M 0,0 H 29.303 V -8.673 H 11.904 v -7.05 h 14.861 v -8.151 H 11.904 V -40.372 H 0 Z"
       style="fill:#ffffff;fill-opacity:1;fill-rule:nonzero;stroke:none"
       transform="matrix(1.3333333,0,0,-1.3333333,633.25907,824.7292)"
       clip-path="url(#clipPath126)" />
    <path
       id="path127"
       d="m 0,0 c -1.465,-0.553 -2.991,-1.039 -4.578,-1.463 -2.162,-0.605 -3.532,-1.201 -4.106,-1.788 -0.595,-0.605 -0.89,-1.295 -0.89,-2.065 0,-0.882 0.292,-1.603 0.876,-2.163 0.585,-0.561 1.443,-0.84 2.578,-0.84 1.185,0 2.288,0.303 3.308,0.91 1.021,0.605 1.743,1.345 2.171,2.217 C -0.213,-4.32 0,-3.189 0,-1.792 Z m -9.235,5.891 -10.177,1.131 c 0.383,1.872 0.937,3.346 1.662,4.418 0.723,1.075 1.765,2.009 3.126,2.797 0.978,0.568 2.32,1.008 4.028,1.323 1.711,0.311 3.56,0.466 5.549,0.466 3.19,0 5.755,-0.189 7.691,-0.564 1.935,-0.379 3.549,-1.161 4.839,-2.355 0.906,-0.826 1.621,-1.998 2.145,-3.51 0.523,-1.515 0.786,-2.961 0.786,-4.338 V -7.658 c 0,-1.377 0.082,-2.457 0.248,-3.236 0.166,-0.78 0.528,-1.777 1.085,-2.988 H 1.754 c -0.401,0.751 -0.663,1.325 -0.784,1.723 -0.124,0.392 -0.246,1.013 -0.367,1.856 -1.395,-1.413 -2.783,-2.42 -4.16,-3.029 -1.883,-0.807 -4.073,-1.211 -6.567,-1.211 -3.313,0 -5.83,0.81 -7.547,2.425 -1.719,1.613 -2.576,3.608 -2.576,5.974 0,2.221 0.616,4.05 1.855,5.479 1.238,1.433 3.523,2.498 6.855,3.196 3.994,0.845 6.585,1.437 7.771,1.779 C -2.58,4.646 -1.324,5.093 0,5.646 0,7.022 -0.269,7.985 -0.811,8.534 -1.351,9.083 -2.302,9.362 -3.663,9.362 -5.406,9.362 -6.713,9.07 -7.584,8.479 -8.266,8.022 -8.815,7.16 -9.235,5.891"
       style="fill:#ffffff;fill-opacity:1;fill-rule:nonzero;stroke:none"
       transform="matrix(1.3333333,0,0,-1.3333333,703.30467,860.04813)"
       clip-path="url(#clipPath128)" />
    <path
       id="path129"
       d="m 0,0 h 9.967 v -4.795 c 0.959,2.075 1.949,3.503 2.97,4.282 1.02,0.782 2.28,1.172 3.781,1.172 1.568,0 3.287,-0.514 5.153,-1.542 l -3.296,-7.984 c -1.256,0.551 -2.25,0.826 -2.981,0.826 -1.397,0 -2.478,-0.608 -3.246,-1.819 C 11.25,-11.568 10.7,-14.761 10.7,-19.446 V -29.25 H 0 Z"
       style="fill:#ffffff;fill-opacity:1;fill-rule:nonzero;stroke:none"
       transform="matrix(1.3333333,0,0,-1.3333333,725.84053,839.55853)"
       clip-path="url(#clipPath130)" />
    <path
       id="path131"
       d="m 0,0 h 9.94 v -4.27 c 1.435,1.781 2.879,3.045 4.336,3.8 1.46,0.753 3.22,1.129 5.281,1.129 2.217,0 3.973,-0.411 5.266,-1.239 1.292,-0.825 2.349,-2.056 3.17,-3.69 1.671,1.909 3.198,3.208 4.572,3.895 1.376,0.69 3.074,1.034 5.095,1.034 2.977,0 5.305,-0.931 6.977,-2.797 1.671,-1.863 2.506,-4.777 2.506,-8.739 V -29.25 H 36.47 v 16.662 c 0,1.32 -0.242,2.305 -0.73,2.946 -0.713,1.01 -1.599,1.517 -2.658,1.517 -1.253,0 -2.261,-0.479 -3.027,-1.431 -0.764,-0.956 -1.147,-2.491 -1.147,-4.602 V -29.25 H 18.234 v 16.111 c 0,1.287 -0.069,2.159 -0.21,2.616 -0.227,0.737 -0.619,1.328 -1.182,1.778 -0.559,0.45 -1.217,0.674 -1.967,0.674 -1.226,0 -2.233,-0.488 -3.02,-1.46 -0.788,-0.973 -1.181,-2.571 -1.181,-4.791 V -29.25 H 0 Z"
       style="fill:#ffffff;fill-opacity:1;fill-rule:nonzero;stroke:none"
       transform="matrix(1.3333333,0,0,-1.3333333,761.0736,839.55853)"
       clip-path="url(#clipPath132)" />
    <path
       id="path133"
       d="M 0,0 C -0.211,2.169 -0.762,3.723 -1.662,4.657 -2.56,5.593 -3.741,6.061 -5.208,6.061 -6.898,6.061 -8.25,5.355 -9.26,3.942 -9.908,3.06 -10.317,1.746 -10.491,0 Z m 10.831,-5.369 h -21.348 c 0.191,-1.798 0.652,-3.138 1.387,-4.02 1.027,-1.266 2.371,-1.899 4.029,-1.899 1.048,0 2.041,0.277 2.981,0.827 0.576,0.348 1.196,0.962 1.857,1.844 l 10.491,-1.02 c -1.603,-2.934 -3.54,-5.046 -5.806,-6.318 -2.268,-1.276 -5.521,-1.916 -9.757,-1.916 -3.681,0 -6.577,0.546 -8.688,1.641 -2.109,1.089 -3.859,2.827 -5.245,5.199 -1.387,2.382 -2.081,5.178 -2.081,8.388 0,4.574 1.391,8.273 4.174,11.101 2.781,2.827 6.623,4.24 11.525,4.24 3.976,0 7.116,-0.632 9.42,-1.899 2.3,-1.267 4.053,-3.105 5.257,-5.509 1.201,-2.404 1.804,-5.535 1.804,-9.39 z"
       style="fill:#ffffff;fill-opacity:1;fill-rule:nonzero;stroke:none"
       transform="matrix(1.3333333,0,0,-1.3333333,859.0944,855.61067)"
       clip-path="url(#clipPath134)" />
    <path
       id="path135"
       d="m 0,0 h 9.965 v -4.795 c 0.962,2.075 1.953,3.503 2.973,4.282 1.02,0.782 2.278,1.172 3.779,1.172 1.571,0 3.288,-0.514 5.154,-1.542 l -3.296,-7.984 c -1.257,0.551 -2.25,0.826 -2.983,0.826 -1.396,0 -2.477,-0.608 -3.243,-1.819 -1.1,-1.708 -1.65,-4.901 -1.65,-9.586 V -29.25 H 0 Z"
       style="fill:#ffffff;fill-opacity:1;fill-rule:nonzero;stroke:none"
       transform="matrix(1.3333333,0,0,-1.3333333,880.19987,839.55853)"
       clip-path="url(#clipPath136)" />
    <path
       id="path137"
       d="m 0,0 10.57,1.046 c 0.436,-1.322 1.047,-2.266 1.833,-2.834 0.785,-0.571 1.829,-0.856 3.14,-0.856 1.429,0 2.536,0.321 3.321,0.963 0.611,0.476 0.917,1.072 0.917,1.786 0,0.808 -0.403,1.432 -1.206,1.872 -0.574,0.31 -2.101,0.696 -4.578,1.152 C 10.299,3.81 7.731,4.436 6.292,5.016 4.854,5.592 3.641,6.57 2.658,7.946 1.671,9.32 1.177,10.887 1.177,12.648 c 0,1.927 0.533,3.588 1.596,4.982 1.064,1.394 2.529,2.434 4.395,3.12 1.866,0.689 4.371,1.033 7.51,1.033 3.314,0 5.76,-0.265 7.337,-0.798 1.579,-0.535 2.895,-1.357 3.951,-2.479 1.057,-1.122 1.932,-2.633 2.63,-4.543 L 18.499,12.917 c -0.263,0.934 -0.699,1.623 -1.31,2.065 -0.837,0.588 -1.848,0.876 -3.033,0.876 -1.205,0 -2.08,-0.22 -2.63,-0.67 -0.55,-0.451 -0.825,-0.992 -0.825,-1.635 0,-0.714 0.349,-1.257 1.045,-1.624 0.699,-0.367 2.217,-0.695 4.554,-0.99 3.539,-0.423 6.175,-1.006 7.902,-1.76 1.726,-0.752 3.047,-1.824 3.963,-3.218 0.916,-1.394 1.373,-2.927 1.373,-4.594 0,-1.688 -0.484,-3.331 -1.452,-4.929 -0.967,-1.591 -2.496,-2.86 -4.578,-3.807 -2.087,-0.943 -4.924,-1.417 -8.516,-1.417 -5.074,0 -8.692,0.762 -10.844,2.287 C 1.994,-4.976 0.611,-2.808 0,0"
       style="fill:#ffffff;fill-opacity:1;fill-rule:nonzero;stroke:none"
       transform="matrix(1.3333333,0,0,-1.3333333,911.0352,867.724)"
       clip-path="url(#clipPath138)" />
    <path
       id="path139"
       d="M 0,0 H 15.586 L 21.598,-24.565 27.565,0 H 43.142 V -40.372 H 33.435 V -9.583 L 25.956,-40.372 H 17.172 L 9.708,-9.583 V -40.372 H 0 Z"
       style="fill:#ffffff;fill-opacity:1;fill-rule:nonzero;stroke:none"
       transform="matrix(1.3333333,0,0,-1.3333333,981.78,824.7292)"
       clip-path="url(#clipPath140)" />
    <path
       id="path141"
       d="m 0,0 c -1.464,-0.553 -2.992,-1.039 -4.58,-1.463 -2.162,-0.605 -3.529,-1.201 -4.105,-1.788 -0.595,-0.605 -0.889,-1.295 -0.889,-2.065 0,-0.882 0.291,-1.603 0.875,-2.163 0.585,-0.561 1.444,-0.84 2.577,-0.84 1.186,0 2.291,0.303 3.309,0.91 1.021,0.605 1.744,1.345 2.172,2.217 C -0.214,-4.32 0,-3.189 0,-1.792 Z m -9.234,5.891 -10.18,1.131 c 0.385,1.872 0.938,3.346 1.662,4.418 0.724,1.075 1.765,2.009 3.127,2.797 0.976,0.568 2.318,1.008 4.028,1.323 1.711,0.311 3.559,0.466 5.547,0.466 3.192,0 5.756,-0.189 7.693,-0.564 1.936,-0.379 3.549,-1.161 4.838,-2.355 0.909,-0.826 1.625,-1.998 2.145,-3.51 0.525,-1.515 0.788,-2.961 0.788,-4.338 V -7.658 c 0,-1.377 0.082,-2.457 0.249,-3.236 0.162,-0.78 0.526,-1.777 1.085,-2.988 H 1.753 c -0.402,0.751 -0.665,1.325 -0.784,1.723 -0.125,0.392 -0.245,1.013 -0.366,1.856 -1.396,-1.413 -2.782,-2.42 -4.162,-3.029 -1.882,-0.807 -4.071,-1.211 -6.565,-1.211 -3.315,0 -5.832,0.81 -7.549,2.425 -1.719,1.613 -2.576,3.608 -2.576,5.974 0,2.221 0.619,4.05 1.855,5.479 1.241,1.433 3.525,2.498 6.857,3.196 3.992,0.845 6.583,1.437 7.77,1.779 1.185,0.336 2.44,0.783 3.767,1.336 0,1.376 -0.271,2.339 -0.811,2.888 -0.54,0.549 -1.492,0.828 -2.853,0.828 -1.743,0 -3.05,-0.292 -3.923,-0.883 C -8.267,8.022 -8.815,7.16 -9.234,5.891"
       style="fill:#ffffff;fill-opacity:1;fill-rule:nonzero;stroke:none"
       transform="matrix(1.3333333,0,0,-1.3333333,1073.6972,860.04813)"
       clip-path="url(#clipPath142)" />
    <path
       id="path143"
       d="m 0,0 h 9.968 v -4.795 c 0.958,2.075 1.949,3.503 2.969,4.282 1.02,0.782 2.281,1.172 3.78,1.172 1.57,0 3.287,-0.514 5.154,-1.542 l -3.295,-7.984 c -1.257,0.551 -2.251,0.826 -2.983,0.826 -1.396,0 -2.477,-0.608 -3.244,-1.819 -1.1,-1.708 -1.648,-4.901 -1.648,-9.586 V -29.25 H 0 Z"
       style="fill:#ffffff;fill-opacity:1;fill-rule:nonzero;stroke:none"
       transform="matrix(1.3333333,0,0,-1.3333333,1096.2324,839.55853)"
       clip-path="url(#clipPath144)" />
    <path
       id="path145"
       d="m 0,0 h 10.885 v -20.836 l 7.952,9.714 H 31.945 L 21.978,-21.37 32.521,-40.372 H 20.522 l -5.627,11.727 -4.01,-4.124 v -7.603 H 0 Z"
       style="fill:#ffffff;fill-opacity:1;fill-rule:nonzero;stroke:none"
       transform="matrix(1.3333333,0,0,-1.3333333,1130.1725,824.7292)"
       clip-path="url(#clipPath146)" />
    <path
       id="path147"
       d="M 0,0 C -0.209,2.169 -0.761,3.723 -1.661,4.657 -2.56,5.593 -3.742,6.061 -5.208,6.061 -6.898,6.061 -8.25,5.355 -9.261,3.942 -9.908,3.06 -10.317,1.746 -10.491,0 Z m 10.833,-5.369 h -21.351 c 0.193,-1.798 0.655,-3.138 1.388,-4.02 1.029,-1.266 2.371,-1.899 4.029,-1.899 1.044,0 2.04,0.277 2.981,0.827 0.578,0.348 1.195,0.962 1.86,1.844 l 10.489,-1.02 c -1.603,-2.934 -3.541,-5.046 -5.809,-6.318 -2.266,-1.276 -5.519,-1.916 -9.757,-1.916 -3.679,0 -6.576,0.546 -8.685,1.641 -2.112,1.089 -3.861,2.827 -5.247,5.199 -1.387,2.382 -2.08,5.178 -2.08,8.388 0,4.574 1.392,8.273 4.174,11.101 2.781,2.827 6.623,4.24 11.525,4.24 3.976,0 7.116,-0.632 9.419,-1.899 C 6.071,9.532 7.823,7.694 9.026,5.29 10.229,2.886 10.833,-0.245 10.833,-4.1 Z"
       style="fill:#ffffff;fill-opacity:1;fill-rule:nonzero;stroke:none"
       transform="matrix(1.3333333,0,0,-1.3333333,1202.0677,855.61067)"
       clip-path="url(#clipPath148)" />
    <path
       id="path149"
       d="m 0,0 v -11.122 h 5.86 v -8.207 H 0 v -10.362 c 0,-1.246 0.114,-2.071 0.34,-2.475 0.349,-0.622 0.961,-0.937 1.831,-0.937 0.786,0 1.886,0.242 3.297,0.718 l 0.787,-7.737 c -2.636,-0.608 -5.094,-0.91 -7.379,-0.91 -2.651,0 -4.602,0.358 -5.861,1.073 -1.255,0.716 -2.184,1.801 -2.786,3.259 -0.602,1.46 -0.901,3.821 -0.901,7.081 v 10.29 h -3.924 v 8.207 h 3.924 v 5.368 z"
       style="fill:#ffffff;fill-opacity:1;fill-rule:nonzero;stroke:none"
       transform="matrix(1.3333333,0,0,-1.3333333,1240.1588,824.7292)"
       clip-path="url(#clipPath150)" />
  </g>
</svg>
